G04 #@! TF.GenerationSoftware,KiCad,Pcbnew,(5.1.4)-1*
G04 #@! TF.CreationDate,2021-03-13T03:50:06-06:00*
G04 #@! TF.ProjectId,Treadstone32,54726561-6473-4746-9f6e-6533322e6b69,1.1*
G04 #@! TF.SameCoordinates,Original*
G04 #@! TF.FileFunction,Legend,Top*
G04 #@! TF.FilePolarity,Positive*
%FSLAX46Y46*%
G04 Gerber Fmt 4.6, Leading zero omitted, Abs format (unit mm)*
G04 Created by KiCad (PCBNEW (5.1.4)-1) date 2021-03-13 03:50:06*
%MOMM*%
%LPD*%
G04 APERTURE LIST*
%ADD10C,0.300000*%
%ADD11C,0.120000*%
%ADD12C,0.150000*%
%ADD13C,0.250000*%
G04 APERTURE END LIST*
D10*
X216847717Y-111309857D02*
X217533431Y-111309857D01*
X217190574Y-112509857D02*
X217190574Y-111309857D01*
X217933431Y-112509857D02*
X217933431Y-111709857D01*
X217933431Y-111938428D02*
X217990574Y-111824142D01*
X218047717Y-111767000D01*
X218162002Y-111709857D01*
X218276288Y-111709857D01*
X219133431Y-112452714D02*
X219019145Y-112509857D01*
X218790574Y-112509857D01*
X218676288Y-112452714D01*
X218619145Y-112338428D01*
X218619145Y-111881285D01*
X218676288Y-111767000D01*
X218790574Y-111709857D01*
X219019145Y-111709857D01*
X219133431Y-111767000D01*
X219190574Y-111881285D01*
X219190574Y-111995571D01*
X218619145Y-112109857D01*
X220219145Y-112509857D02*
X220219145Y-111881285D01*
X220162002Y-111767000D01*
X220047717Y-111709857D01*
X219819145Y-111709857D01*
X219704860Y-111767000D01*
X220219145Y-112452714D02*
X220104860Y-112509857D01*
X219819145Y-112509857D01*
X219704860Y-112452714D01*
X219647717Y-112338428D01*
X219647717Y-112224142D01*
X219704860Y-112109857D01*
X219819145Y-112052714D01*
X220104860Y-112052714D01*
X220219145Y-111995571D01*
X221304860Y-112509857D02*
X221304860Y-111309857D01*
X221304860Y-112452714D02*
X221190574Y-112509857D01*
X220962002Y-112509857D01*
X220847717Y-112452714D01*
X220790574Y-112395571D01*
X220733431Y-112281285D01*
X220733431Y-111938428D01*
X220790574Y-111824142D01*
X220847717Y-111767000D01*
X220962002Y-111709857D01*
X221190574Y-111709857D01*
X221304860Y-111767000D01*
X221819145Y-112452714D02*
X221933431Y-112509857D01*
X222162002Y-112509857D01*
X222276288Y-112452714D01*
X222333431Y-112338428D01*
X222333431Y-112281285D01*
X222276288Y-112167000D01*
X222162002Y-112109857D01*
X221990574Y-112109857D01*
X221876288Y-112052714D01*
X221819145Y-111938428D01*
X221819145Y-111881285D01*
X221876288Y-111767000D01*
X221990574Y-111709857D01*
X222162002Y-111709857D01*
X222276288Y-111767000D01*
X222676288Y-111709857D02*
X223133431Y-111709857D01*
X222847717Y-111309857D02*
X222847717Y-112338428D01*
X222904860Y-112452714D01*
X223019145Y-112509857D01*
X223133431Y-112509857D01*
X223704860Y-112509857D02*
X223590574Y-112452714D01*
X223533431Y-112395571D01*
X223476288Y-112281285D01*
X223476288Y-111938428D01*
X223533431Y-111824142D01*
X223590574Y-111767000D01*
X223704860Y-111709857D01*
X223876288Y-111709857D01*
X223990574Y-111767000D01*
X224047717Y-111824142D01*
X224104860Y-111938428D01*
X224104860Y-112281285D01*
X224047717Y-112395571D01*
X223990574Y-112452714D01*
X223876288Y-112509857D01*
X223704860Y-112509857D01*
X224619145Y-111709857D02*
X224619145Y-112509857D01*
X224619145Y-111824142D02*
X224676288Y-111767000D01*
X224790574Y-111709857D01*
X224962002Y-111709857D01*
X225076288Y-111767000D01*
X225133431Y-111881285D01*
X225133431Y-112509857D01*
X226162002Y-112452714D02*
X226047717Y-112509857D01*
X225819145Y-112509857D01*
X225704860Y-112452714D01*
X225647717Y-112338428D01*
X225647717Y-111881285D01*
X225704860Y-111767000D01*
X225819145Y-111709857D01*
X226047717Y-111709857D01*
X226162002Y-111767000D01*
X226219145Y-111881285D01*
X226219145Y-111995571D01*
X225647717Y-112109857D01*
X226619145Y-111309857D02*
X227362002Y-111309857D01*
X226962002Y-111767000D01*
X227133431Y-111767000D01*
X227247717Y-111824142D01*
X227304860Y-111881285D01*
X227362002Y-111995571D01*
X227362002Y-112281285D01*
X227304860Y-112395571D01*
X227247717Y-112452714D01*
X227133431Y-112509857D01*
X226790574Y-112509857D01*
X226676288Y-112452714D01*
X226619145Y-112395571D01*
X227819145Y-111424142D02*
X227876288Y-111367000D01*
X227990574Y-111309857D01*
X228276288Y-111309857D01*
X228390574Y-111367000D01*
X228447717Y-111424142D01*
X228504860Y-111538428D01*
X228504860Y-111652714D01*
X228447717Y-111824142D01*
X227762002Y-112509857D01*
X228504860Y-112509857D01*
X229933431Y-112509857D02*
X229933431Y-111709857D01*
X229933431Y-111938428D02*
X229990574Y-111824142D01*
X230047717Y-111767000D01*
X230162002Y-111709857D01*
X230276288Y-111709857D01*
X231133431Y-112452714D02*
X231019145Y-112509857D01*
X230790574Y-112509857D01*
X230676288Y-112452714D01*
X230619145Y-112338428D01*
X230619145Y-111881285D01*
X230676288Y-111767000D01*
X230790574Y-111709857D01*
X231019145Y-111709857D01*
X231133431Y-111767000D01*
X231190574Y-111881285D01*
X231190574Y-111995571D01*
X230619145Y-112109857D01*
X231590574Y-111709857D02*
X231876288Y-112509857D01*
X232162002Y-111709857D01*
X233304860Y-112395571D02*
X233247717Y-112452714D01*
X233076288Y-112509857D01*
X232962002Y-112509857D01*
X232790574Y-112452714D01*
X232676288Y-112338428D01*
X232619145Y-112224142D01*
X232562002Y-111995571D01*
X232562002Y-111824142D01*
X232619145Y-111595571D01*
X232676288Y-111481285D01*
X232790574Y-111367000D01*
X232962002Y-111309857D01*
X233076288Y-111309857D01*
X233247717Y-111367000D01*
X233304860Y-111424142D01*
X233819145Y-112395571D02*
X233876288Y-112452714D01*
X233819145Y-112509857D01*
X233762002Y-112452714D01*
X233819145Y-112395571D01*
X233819145Y-112509857D01*
X235019145Y-112509857D02*
X234333431Y-112509857D01*
X234676288Y-112509857D02*
X234676288Y-111309857D01*
X234562002Y-111481285D01*
X234447717Y-111595571D01*
X234333431Y-111652714D01*
X214362002Y-114609857D02*
X214362002Y-113409857D01*
X214647717Y-113409857D01*
X214819145Y-113467000D01*
X214933431Y-113581285D01*
X214990574Y-113695571D01*
X215047717Y-113924142D01*
X215047717Y-114095571D01*
X214990574Y-114324142D01*
X214933431Y-114438428D01*
X214819145Y-114552714D01*
X214647717Y-114609857D01*
X214362002Y-114609857D01*
X216019145Y-114552714D02*
X215904860Y-114609857D01*
X215676288Y-114609857D01*
X215562002Y-114552714D01*
X215504860Y-114438428D01*
X215504860Y-113981285D01*
X215562002Y-113867000D01*
X215676288Y-113809857D01*
X215904860Y-113809857D01*
X216019145Y-113867000D01*
X216076288Y-113981285D01*
X216076288Y-114095571D01*
X215504860Y-114209857D01*
X216533431Y-114552714D02*
X216647717Y-114609857D01*
X216876288Y-114609857D01*
X216990574Y-114552714D01*
X217047717Y-114438428D01*
X217047717Y-114381285D01*
X216990574Y-114267000D01*
X216876288Y-114209857D01*
X216704860Y-114209857D01*
X216590574Y-114152714D01*
X216533431Y-114038428D01*
X216533431Y-113981285D01*
X216590574Y-113867000D01*
X216704860Y-113809857D01*
X216876288Y-113809857D01*
X216990574Y-113867000D01*
X217562002Y-114609857D02*
X217562002Y-113809857D01*
X217562002Y-113409857D02*
X217504860Y-113467000D01*
X217562002Y-113524142D01*
X217619145Y-113467000D01*
X217562002Y-113409857D01*
X217562002Y-113524142D01*
X218647717Y-113809857D02*
X218647717Y-114781285D01*
X218590574Y-114895571D01*
X218533431Y-114952714D01*
X218419145Y-115009857D01*
X218247717Y-115009857D01*
X218133431Y-114952714D01*
X218647717Y-114552714D02*
X218533431Y-114609857D01*
X218304860Y-114609857D01*
X218190574Y-114552714D01*
X218133431Y-114495571D01*
X218076288Y-114381285D01*
X218076288Y-114038428D01*
X218133431Y-113924142D01*
X218190574Y-113867000D01*
X218304860Y-113809857D01*
X218533431Y-113809857D01*
X218647717Y-113867000D01*
X219219145Y-113809857D02*
X219219145Y-114609857D01*
X219219145Y-113924142D02*
X219276288Y-113867000D01*
X219390574Y-113809857D01*
X219562002Y-113809857D01*
X219676288Y-113867000D01*
X219733431Y-113981285D01*
X219733431Y-114609857D01*
X220762002Y-114552714D02*
X220647717Y-114609857D01*
X220419145Y-114609857D01*
X220304860Y-114552714D01*
X220247717Y-114438428D01*
X220247717Y-113981285D01*
X220304860Y-113867000D01*
X220419145Y-113809857D01*
X220647717Y-113809857D01*
X220762002Y-113867000D01*
X220819145Y-113981285D01*
X220819145Y-114095571D01*
X220247717Y-114209857D01*
X221847717Y-114609857D02*
X221847717Y-113409857D01*
X221847717Y-114552714D02*
X221733431Y-114609857D01*
X221504860Y-114609857D01*
X221390574Y-114552714D01*
X221333431Y-114495571D01*
X221276288Y-114381285D01*
X221276288Y-114038428D01*
X221333431Y-113924142D01*
X221390574Y-113867000D01*
X221504860Y-113809857D01*
X221733431Y-113809857D01*
X221847717Y-113867000D01*
X223333431Y-114609857D02*
X223333431Y-113409857D01*
X223333431Y-113867000D02*
X223447717Y-113809857D01*
X223676288Y-113809857D01*
X223790574Y-113867000D01*
X223847717Y-113924142D01*
X223904860Y-114038428D01*
X223904860Y-114381285D01*
X223847717Y-114495571D01*
X223790574Y-114552714D01*
X223676288Y-114609857D01*
X223447717Y-114609857D01*
X223333431Y-114552714D01*
X224304860Y-113809857D02*
X224590574Y-114609857D01*
X224876288Y-113809857D02*
X224590574Y-114609857D01*
X224476288Y-114895571D01*
X224419145Y-114952714D01*
X224304860Y-115009857D01*
X226247717Y-114609857D02*
X226247717Y-113809857D01*
X226247717Y-113924142D02*
X226304860Y-113867000D01*
X226419145Y-113809857D01*
X226590574Y-113809857D01*
X226704860Y-113867000D01*
X226762002Y-113981285D01*
X226762002Y-114609857D01*
X226762002Y-113981285D02*
X226819145Y-113867000D01*
X226933431Y-113809857D01*
X227104860Y-113809857D01*
X227219145Y-113867000D01*
X227276288Y-113981285D01*
X227276288Y-114609857D01*
X228362002Y-114609857D02*
X228362002Y-113981285D01*
X228304860Y-113867000D01*
X228190574Y-113809857D01*
X227962002Y-113809857D01*
X227847717Y-113867000D01*
X228362002Y-114552714D02*
X228247717Y-114609857D01*
X227962002Y-114609857D01*
X227847717Y-114552714D01*
X227790574Y-114438428D01*
X227790574Y-114324142D01*
X227847717Y-114209857D01*
X227962002Y-114152714D01*
X228247717Y-114152714D01*
X228362002Y-114095571D01*
X228933431Y-114609857D02*
X228933431Y-113809857D01*
X228933431Y-114038428D02*
X228990574Y-113924142D01*
X229047717Y-113867000D01*
X229162002Y-113809857D01*
X229276288Y-113809857D01*
X229676288Y-114609857D02*
X229676288Y-113409857D01*
X229790574Y-114152714D02*
X230133431Y-114609857D01*
X230133431Y-113809857D02*
X229676288Y-114267000D01*
X230590574Y-114552714D02*
X230704860Y-114609857D01*
X230933431Y-114609857D01*
X231047717Y-114552714D01*
X231104860Y-114438428D01*
X231104860Y-114381285D01*
X231047717Y-114267000D01*
X230933431Y-114209857D01*
X230762002Y-114209857D01*
X230647717Y-114152714D01*
X230590574Y-114038428D01*
X230590574Y-113981285D01*
X230647717Y-113867000D01*
X230762002Y-113809857D01*
X230933431Y-113809857D01*
X231047717Y-113867000D01*
X232133431Y-114609857D02*
X232133431Y-113981285D01*
X232076288Y-113867000D01*
X231962002Y-113809857D01*
X231733431Y-113809857D01*
X231619145Y-113867000D01*
X232133431Y-114552714D02*
X232019145Y-114609857D01*
X231733431Y-114609857D01*
X231619145Y-114552714D01*
X231562002Y-114438428D01*
X231562002Y-114324142D01*
X231619145Y-114209857D01*
X231733431Y-114152714D01*
X232019145Y-114152714D01*
X232133431Y-114095571D01*
X232704860Y-114609857D02*
X232704860Y-113809857D01*
X232704860Y-114038428D02*
X232762002Y-113924142D01*
X232819145Y-113867000D01*
X232933431Y-113809857D01*
X233047717Y-113809857D01*
X233962002Y-114609857D02*
X233962002Y-113409857D01*
X233962002Y-114552714D02*
X233847717Y-114609857D01*
X233619145Y-114609857D01*
X233504860Y-114552714D01*
X233447717Y-114495571D01*
X233390574Y-114381285D01*
X233390574Y-114038428D01*
X233447717Y-113924142D01*
X233504860Y-113867000D01*
X233619145Y-113809857D01*
X233847717Y-113809857D01*
X233962002Y-113867000D01*
X235390574Y-113524142D02*
X235447717Y-113467000D01*
X235562002Y-113409857D01*
X235847717Y-113409857D01*
X235962002Y-113467000D01*
X236019145Y-113524142D01*
X236076288Y-113638428D01*
X236076288Y-113752714D01*
X236019145Y-113924142D01*
X235333431Y-114609857D01*
X236076288Y-114609857D01*
X236819145Y-113409857D02*
X236933431Y-113409857D01*
X237047717Y-113467000D01*
X237104860Y-113524142D01*
X237162002Y-113638428D01*
X237219145Y-113867000D01*
X237219145Y-114152714D01*
X237162002Y-114381285D01*
X237104860Y-114495571D01*
X237047717Y-114552714D01*
X236933431Y-114609857D01*
X236819145Y-114609857D01*
X236704860Y-114552714D01*
X236647717Y-114495571D01*
X236590574Y-114381285D01*
X236533431Y-114152714D01*
X236533431Y-113867000D01*
X236590574Y-113638428D01*
X236647717Y-113524142D01*
X236704860Y-113467000D01*
X236819145Y-113409857D01*
X238362002Y-114609857D02*
X237676288Y-114609857D01*
X238019145Y-114609857D02*
X238019145Y-113409857D01*
X237904860Y-113581285D01*
X237790574Y-113695571D01*
X237676288Y-113752714D01*
X238933431Y-114609857D02*
X239162002Y-114609857D01*
X239276288Y-114552714D01*
X239333431Y-114495571D01*
X239447717Y-114324142D01*
X239504860Y-114095571D01*
X239504860Y-113638428D01*
X239447717Y-113524142D01*
X239390574Y-113467000D01*
X239276288Y-113409857D01*
X239047717Y-113409857D01*
X238933431Y-113467000D01*
X238876288Y-113524142D01*
X238819145Y-113638428D01*
X238819145Y-113924142D01*
X238876288Y-114038428D01*
X238933431Y-114095571D01*
X239047717Y-114152714D01*
X239276288Y-114152714D01*
X239390574Y-114095571D01*
X239447717Y-114038428D01*
X239504860Y-113924142D01*
X216390574Y-116709857D02*
X215990574Y-116138428D01*
X215704860Y-116709857D02*
X215704860Y-115509857D01*
X216162002Y-115509857D01*
X216276288Y-115567000D01*
X216333431Y-115624142D01*
X216390574Y-115738428D01*
X216390574Y-115909857D01*
X216333431Y-116024142D01*
X216276288Y-116081285D01*
X216162002Y-116138428D01*
X215704860Y-116138428D01*
X217362002Y-116652714D02*
X217247717Y-116709857D01*
X217019145Y-116709857D01*
X216904860Y-116652714D01*
X216847717Y-116538428D01*
X216847717Y-116081285D01*
X216904860Y-115967000D01*
X217019145Y-115909857D01*
X217247717Y-115909857D01*
X217362002Y-115967000D01*
X217419145Y-116081285D01*
X217419145Y-116195571D01*
X216847717Y-116309857D01*
X217819145Y-115909857D02*
X218104860Y-116709857D01*
X218390574Y-115909857D01*
X218847717Y-116709857D02*
X218847717Y-115909857D01*
X218847717Y-115509857D02*
X218790574Y-115567000D01*
X218847717Y-115624142D01*
X218904860Y-115567000D01*
X218847717Y-115509857D01*
X218847717Y-115624142D01*
X219362002Y-116652714D02*
X219476288Y-116709857D01*
X219704860Y-116709857D01*
X219819145Y-116652714D01*
X219876288Y-116538428D01*
X219876288Y-116481285D01*
X219819145Y-116367000D01*
X219704860Y-116309857D01*
X219533431Y-116309857D01*
X219419145Y-116252714D01*
X219362002Y-116138428D01*
X219362002Y-116081285D01*
X219419145Y-115967000D01*
X219533431Y-115909857D01*
X219704860Y-115909857D01*
X219819145Y-115967000D01*
X220847717Y-116652714D02*
X220733431Y-116709857D01*
X220504860Y-116709857D01*
X220390574Y-116652714D01*
X220333431Y-116538428D01*
X220333431Y-116081285D01*
X220390574Y-115967000D01*
X220504860Y-115909857D01*
X220733431Y-115909857D01*
X220847717Y-115967000D01*
X220904860Y-116081285D01*
X220904860Y-116195571D01*
X220333431Y-116309857D01*
X221933431Y-116709857D02*
X221933431Y-115509857D01*
X221933431Y-116652714D02*
X221819145Y-116709857D01*
X221590574Y-116709857D01*
X221476288Y-116652714D01*
X221419145Y-116595571D01*
X221362002Y-116481285D01*
X221362002Y-116138428D01*
X221419145Y-116024142D01*
X221476288Y-115967000D01*
X221590574Y-115909857D01*
X221819145Y-115909857D01*
X221933431Y-115967000D01*
X223419145Y-116709857D02*
X223419145Y-115509857D01*
X223419145Y-115967000D02*
X223533431Y-115909857D01*
X223762002Y-115909857D01*
X223876288Y-115967000D01*
X223933431Y-116024142D01*
X223990574Y-116138428D01*
X223990574Y-116481285D01*
X223933431Y-116595571D01*
X223876288Y-116652714D01*
X223762002Y-116709857D01*
X223533431Y-116709857D01*
X223419145Y-116652714D01*
X224390574Y-115909857D02*
X224676288Y-116709857D01*
X224962002Y-115909857D02*
X224676288Y-116709857D01*
X224562002Y-116995571D01*
X224504860Y-117052714D01*
X224390574Y-117109857D01*
X226333431Y-116709857D02*
X226333431Y-115509857D01*
X226733431Y-116367000D01*
X227133431Y-115509857D01*
X227133431Y-116709857D01*
X228162002Y-116652714D02*
X228047717Y-116709857D01*
X227819145Y-116709857D01*
X227704860Y-116652714D01*
X227647717Y-116538428D01*
X227647717Y-116081285D01*
X227704860Y-115967000D01*
X227819145Y-115909857D01*
X228047717Y-115909857D01*
X228162002Y-115967000D01*
X228219145Y-116081285D01*
X228219145Y-116195571D01*
X227647717Y-116309857D01*
X228904860Y-116709857D02*
X228790574Y-116652714D01*
X228733431Y-116538428D01*
X228733431Y-115509857D01*
X229362002Y-116709857D02*
X229362002Y-115909857D01*
X229362002Y-115509857D02*
X229304860Y-115567000D01*
X229362002Y-115624142D01*
X229419145Y-115567000D01*
X229362002Y-115509857D01*
X229362002Y-115624142D01*
X229933431Y-115909857D02*
X229933431Y-116709857D01*
X229933431Y-116024142D02*
X229990574Y-115967000D01*
X230104860Y-115909857D01*
X230276288Y-115909857D01*
X230390574Y-115967000D01*
X230447717Y-116081285D01*
X230447717Y-116709857D01*
X231533431Y-116709857D02*
X231533431Y-115509857D01*
X231533431Y-116652714D02*
X231419145Y-116709857D01*
X231190574Y-116709857D01*
X231076288Y-116652714D01*
X231019145Y-116595571D01*
X230962002Y-116481285D01*
X230962002Y-116138428D01*
X231019145Y-116024142D01*
X231076288Y-115967000D01*
X231190574Y-115909857D01*
X231419145Y-115909857D01*
X231533431Y-115967000D01*
X232619145Y-116709857D02*
X232619145Y-116081285D01*
X232562002Y-115967000D01*
X232447717Y-115909857D01*
X232219145Y-115909857D01*
X232104860Y-115967000D01*
X232619145Y-116652714D02*
X232504860Y-116709857D01*
X232219145Y-116709857D01*
X232104860Y-116652714D01*
X232047717Y-116538428D01*
X232047717Y-116424142D01*
X232104860Y-116309857D01*
X232219145Y-116252714D01*
X232504860Y-116252714D01*
X232619145Y-116195571D01*
X234047717Y-115624142D02*
X234104860Y-115567000D01*
X234219145Y-115509857D01*
X234504860Y-115509857D01*
X234619145Y-115567000D01*
X234676288Y-115624142D01*
X234733431Y-115738428D01*
X234733431Y-115852714D01*
X234676288Y-116024142D01*
X233990574Y-116709857D01*
X234733431Y-116709857D01*
X235476288Y-115509857D02*
X235590574Y-115509857D01*
X235704860Y-115567000D01*
X235762002Y-115624142D01*
X235819145Y-115738428D01*
X235876288Y-115967000D01*
X235876288Y-116252714D01*
X235819145Y-116481285D01*
X235762002Y-116595571D01*
X235704860Y-116652714D01*
X235590574Y-116709857D01*
X235476288Y-116709857D01*
X235362002Y-116652714D01*
X235304860Y-116595571D01*
X235247717Y-116481285D01*
X235190574Y-116252714D01*
X235190574Y-115967000D01*
X235247717Y-115738428D01*
X235304860Y-115624142D01*
X235362002Y-115567000D01*
X235476288Y-115509857D01*
X236333431Y-115624142D02*
X236390574Y-115567000D01*
X236504860Y-115509857D01*
X236790574Y-115509857D01*
X236904860Y-115567000D01*
X236962002Y-115624142D01*
X237019145Y-115738428D01*
X237019145Y-115852714D01*
X236962002Y-116024142D01*
X236276288Y-116709857D01*
X237019145Y-116709857D01*
X238162002Y-116709857D02*
X237476288Y-116709857D01*
X237819145Y-116709857D02*
X237819145Y-115509857D01*
X237704860Y-115681285D01*
X237590574Y-115795571D01*
X237476288Y-115852714D01*
D11*
X213639860Y-130414000D02*
X213639860Y-126514000D01*
X215639860Y-130414000D02*
X215639860Y-126514000D01*
X213639860Y-130414000D02*
X215639860Y-130414000D01*
X175485860Y-130414000D02*
X175485860Y-126514000D01*
X177485860Y-130414000D02*
X177485860Y-126514000D01*
X175485860Y-130414000D02*
X177485860Y-130414000D01*
X282800860Y-109459000D02*
X282800860Y-105559000D01*
X284800860Y-109459000D02*
X284800860Y-105559000D01*
X282800860Y-109459000D02*
X284800860Y-109459000D01*
X267941860Y-109459000D02*
X267941860Y-105559000D01*
X269941860Y-109459000D02*
X269941860Y-105559000D01*
X267941860Y-109459000D02*
X269941860Y-109459000D01*
X248891860Y-109459000D02*
X248891860Y-105559000D01*
X250891860Y-109459000D02*
X250891860Y-105559000D01*
X248891860Y-109459000D02*
X250891860Y-109459000D01*
X229841860Y-109459000D02*
X229841860Y-105559000D01*
X231841860Y-109459000D02*
X231841860Y-105559000D01*
X229841860Y-109459000D02*
X231841860Y-109459000D01*
X210791860Y-109459000D02*
X210791860Y-105559000D01*
X212791860Y-109459000D02*
X212791860Y-105559000D01*
X210791860Y-109459000D02*
X212791860Y-109459000D01*
X182089860Y-109459000D02*
X182089860Y-105559000D01*
X184089860Y-109459000D02*
X184089860Y-105559000D01*
X182089860Y-109459000D02*
X184089860Y-109459000D01*
X163082192Y-109459000D02*
X163082192Y-105559000D01*
X165082192Y-109459000D02*
X165082192Y-105559000D01*
X163082192Y-109459000D02*
X165082192Y-109459000D01*
X144074526Y-109459000D02*
X144074526Y-105559000D01*
X146074526Y-109459000D02*
X146074526Y-105559000D01*
X144074526Y-109459000D02*
X146074526Y-109459000D01*
X125066860Y-109459000D02*
X125066860Y-105559000D01*
X127066860Y-109459000D02*
X127066860Y-105559000D01*
X125066860Y-109459000D02*
X127066860Y-109459000D01*
X101571860Y-109459000D02*
X101571860Y-105559000D01*
X103571860Y-109459000D02*
X103571860Y-105559000D01*
X101571860Y-109459000D02*
X103571860Y-109459000D01*
X282165860Y-91185500D02*
X282165860Y-87285500D01*
X284165860Y-91185500D02*
X284165860Y-87285500D01*
X282165860Y-91185500D02*
X284165860Y-91185500D01*
X263115860Y-91185500D02*
X263115860Y-87285500D01*
X265115860Y-91185500D02*
X265115860Y-87285500D01*
X263115860Y-91185500D02*
X265115860Y-91185500D01*
X244065860Y-91185500D02*
X244065860Y-87285500D01*
X246065860Y-91185500D02*
X246065860Y-87285500D01*
X244065860Y-91185500D02*
X246065860Y-91185500D01*
X225015860Y-91185500D02*
X225015860Y-87285500D01*
X227015860Y-91185500D02*
X227015860Y-87285500D01*
X225015860Y-91185500D02*
X227015860Y-91185500D01*
X205965860Y-91185500D02*
X205965860Y-87285500D01*
X207965860Y-91185500D02*
X207965860Y-87285500D01*
X205965860Y-91185500D02*
X207965860Y-91185500D01*
X186915860Y-91185500D02*
X186915860Y-87285500D01*
X188915860Y-91185500D02*
X188915860Y-87285500D01*
X186915860Y-91185500D02*
X188915860Y-91185500D01*
X167865860Y-91185500D02*
X167865860Y-87285500D01*
X169865860Y-91185500D02*
X169865860Y-87285500D01*
X167865860Y-91185500D02*
X169865860Y-91185500D01*
X148815860Y-91185500D02*
X148815860Y-87285500D01*
X150815860Y-91185500D02*
X150815860Y-87285500D01*
X148815860Y-91185500D02*
X150815860Y-91185500D01*
X129765860Y-91185500D02*
X129765860Y-87285500D01*
X131765860Y-91185500D02*
X131765860Y-87285500D01*
X129765860Y-91185500D02*
X131765860Y-91185500D01*
X110715860Y-91185500D02*
X110715860Y-87285500D01*
X112715860Y-91185500D02*
X112715860Y-87285500D01*
X110715860Y-91185500D02*
X112715860Y-91185500D01*
X286844860Y-72384000D02*
X286844860Y-68484000D01*
X288844860Y-72384000D02*
X288844860Y-68484000D01*
X286844860Y-72384000D02*
X288844860Y-72384000D01*
X267844860Y-72384000D02*
X267844860Y-68484000D01*
X269844860Y-72384000D02*
X269844860Y-68484000D01*
X267844860Y-72384000D02*
X269844860Y-72384000D01*
X248844860Y-72384000D02*
X248844860Y-68484000D01*
X250844860Y-72384000D02*
X250844860Y-68484000D01*
X248844860Y-72384000D02*
X250844860Y-72384000D01*
X229844860Y-72384000D02*
X229844860Y-68484000D01*
X231844860Y-72384000D02*
X231844860Y-68484000D01*
X229844860Y-72384000D02*
X231844860Y-72384000D01*
X210844860Y-72384000D02*
X210844860Y-68484000D01*
X212844860Y-72384000D02*
X212844860Y-68484000D01*
X210844860Y-72384000D02*
X212844860Y-72384000D01*
X181844860Y-72384000D02*
X181844860Y-68484000D01*
X183844860Y-72384000D02*
X183844860Y-68484000D01*
X181844860Y-72384000D02*
X183844860Y-72384000D01*
X162844860Y-72384000D02*
X162844860Y-68484000D01*
X164844860Y-72384000D02*
X164844860Y-68484000D01*
X162844860Y-72384000D02*
X164844860Y-72384000D01*
X143844860Y-72384000D02*
X143844860Y-68484000D01*
X145844860Y-72384000D02*
X145844860Y-68484000D01*
X143844860Y-72384000D02*
X145844860Y-72384000D01*
X124844860Y-72384000D02*
X124844860Y-68484000D01*
X126844860Y-72384000D02*
X126844860Y-68484000D01*
X124844860Y-72384000D02*
X126844860Y-72384000D01*
X106016860Y-72375000D02*
X106016860Y-68475000D01*
X108016860Y-72375000D02*
X108016860Y-68475000D01*
X106016860Y-72375000D02*
X108016860Y-72375000D01*
X293927860Y-77895200D02*
X293927860Y-76745200D01*
X286627860Y-77895200D02*
X293927860Y-77895200D01*
X286627860Y-72395200D02*
X293927860Y-72395200D01*
X294689860Y-113134000D02*
X294689860Y-111984000D01*
X287389860Y-113134000D02*
X294689860Y-113134000D01*
X287389860Y-107634000D02*
X294689860Y-107634000D01*
X249434560Y-118595000D02*
X249434560Y-117445000D01*
X242134560Y-118595000D02*
X249434560Y-118595000D01*
X242134560Y-113095000D02*
X249434560Y-113095000D01*
X223315860Y-132819000D02*
X223315860Y-131669000D01*
X216015860Y-132819000D02*
X223315860Y-132819000D01*
X216015860Y-127319000D02*
X223315860Y-127319000D01*
X185215860Y-132819000D02*
X185215860Y-131669000D01*
X177915860Y-132819000D02*
X185215860Y-132819000D01*
X177915860Y-127319000D02*
X185215860Y-127319000D01*
X158952760Y-118595000D02*
X158952760Y-117445000D01*
X151652760Y-118595000D02*
X158952760Y-118595000D01*
X151652760Y-113095000D02*
X158952760Y-113095000D01*
X113841860Y-113134000D02*
X113841860Y-111984000D01*
X106541860Y-113134000D02*
X113841860Y-113134000D01*
X106541860Y-107634000D02*
X113841860Y-107634000D01*
X114505560Y-77895200D02*
X114505560Y-76745200D01*
X107205560Y-77895200D02*
X114505560Y-77895200D01*
X107205560Y-72395200D02*
X114505560Y-72395200D01*
X206204860Y-69151936D02*
X206204860Y-69606064D01*
X207674860Y-69151936D02*
X207674860Y-69606064D01*
D12*
X199989860Y-71464000D02*
X199989860Y-71294001D01*
X200714860Y-69859000D02*
X200664861Y-69859000D01*
X200714860Y-72899000D02*
X200664860Y-72899000D01*
D13*
X202339860Y-73274000D02*
G75*
G03X202339860Y-73274000I-125000J0D01*
G01*
D12*
X201666082Y-112602977D02*
X200764520Y-111701416D01*
X209391223Y-119514946D02*
X208913926Y-119037649D01*
X202072668Y-126833501D02*
X201595371Y-126356204D01*
X194754113Y-119514946D02*
X195231410Y-119992243D01*
X202072668Y-112196391D02*
X202549965Y-112673688D01*
X194754113Y-119514946D02*
X195231410Y-119037649D01*
X202072668Y-126833501D02*
X202549965Y-126356204D01*
X209391223Y-119514946D02*
X208913926Y-119992243D01*
X202072668Y-112196391D02*
X201666082Y-112602977D01*
D11*
X184499860Y-113569000D02*
X184499860Y-114629000D01*
X183439860Y-113569000D02*
X184499860Y-113569000D01*
X182439860Y-113569000D02*
X182439860Y-115689000D01*
X182439860Y-115689000D02*
X180379860Y-115689000D01*
X182439860Y-113569000D02*
X180379860Y-113569000D01*
X180379860Y-113569000D02*
X180379860Y-115689000D01*
X197574860Y-74718564D02*
X197574860Y-74264436D01*
X196104860Y-74718564D02*
X196104860Y-74264436D01*
X204974860Y-74718564D02*
X204974860Y-74264436D01*
X203504860Y-74718564D02*
X203504860Y-74264436D01*
X211870142Y-122519835D02*
X211549025Y-122198718D01*
X210830695Y-123559282D02*
X210509578Y-123238165D01*
X202574860Y-76893564D02*
X202574860Y-76439436D01*
X201104860Y-76893564D02*
X201104860Y-76439436D01*
X199974860Y-76893564D02*
X199974860Y-76439436D01*
X198504860Y-76893564D02*
X198504860Y-76439436D01*
X189254424Y-113894000D02*
X188800296Y-113894000D01*
X189254424Y-115364000D02*
X188800296Y-115364000D01*
X195149860Y-75700078D02*
X195149860Y-75182922D01*
X193729860Y-75700078D02*
X193729860Y-75182922D01*
X200196601Y-110911706D02*
X200566068Y-110542239D01*
X199157154Y-109872259D02*
X199526621Y-109502792D01*
X211274850Y-116583457D02*
X211644317Y-116213990D01*
X210235403Y-115544010D02*
X210604870Y-115174543D01*
X205657154Y-128463990D02*
X206026621Y-128833457D01*
X206696601Y-127424543D02*
X207066068Y-127794010D01*
X191644317Y-117794010D02*
X191274850Y-117424543D01*
X190604870Y-118833457D02*
X190235403Y-118463990D01*
X196222566Y-112622259D02*
X195853099Y-112252792D01*
X195183119Y-113661706D02*
X194813652Y-113292239D01*
X192104870Y-123674543D02*
X191735403Y-124044010D01*
X193144317Y-124713990D02*
X192774850Y-125083457D01*
X198603099Y-130755208D02*
X198972566Y-130385741D01*
X197563652Y-129715761D02*
X197933119Y-129346294D01*
X195549608Y-130768551D02*
X198731589Y-127586570D01*
X198731589Y-127586570D02*
X194913212Y-123768193D01*
D12*
X213092240Y-129378285D02*
X212092240Y-129378285D01*
X212092240Y-129140190D01*
X212139860Y-128997333D01*
X212235098Y-128902095D01*
X212330336Y-128854476D01*
X212520812Y-128806857D01*
X212663669Y-128806857D01*
X212854145Y-128854476D01*
X212949383Y-128902095D01*
X213044621Y-128997333D01*
X213092240Y-129140190D01*
X213092240Y-129378285D01*
X212092240Y-128473523D02*
X212092240Y-127854476D01*
X212473193Y-128187809D01*
X212473193Y-128044952D01*
X212520812Y-127949714D01*
X212568431Y-127902095D01*
X212663669Y-127854476D01*
X212901764Y-127854476D01*
X212997002Y-127902095D01*
X213044621Y-127949714D01*
X213092240Y-128044952D01*
X213092240Y-128330666D01*
X213044621Y-128425904D01*
X212997002Y-128473523D01*
X212187479Y-127473523D02*
X212139860Y-127425904D01*
X212092240Y-127330666D01*
X212092240Y-127092571D01*
X212139860Y-126997333D01*
X212187479Y-126949714D01*
X212282717Y-126902095D01*
X212377955Y-126902095D01*
X212520812Y-126949714D01*
X213092240Y-127521142D01*
X213092240Y-126902095D01*
X174938240Y-129378285D02*
X173938240Y-129378285D01*
X173938240Y-129140190D01*
X173985860Y-128997333D01*
X174081098Y-128902095D01*
X174176336Y-128854476D01*
X174366812Y-128806857D01*
X174509669Y-128806857D01*
X174700145Y-128854476D01*
X174795383Y-128902095D01*
X174890621Y-128997333D01*
X174938240Y-129140190D01*
X174938240Y-129378285D01*
X173938240Y-128473523D02*
X173938240Y-127854476D01*
X174319193Y-128187809D01*
X174319193Y-128044952D01*
X174366812Y-127949714D01*
X174414431Y-127902095D01*
X174509669Y-127854476D01*
X174747764Y-127854476D01*
X174843002Y-127902095D01*
X174890621Y-127949714D01*
X174938240Y-128044952D01*
X174938240Y-128330666D01*
X174890621Y-128425904D01*
X174843002Y-128473523D01*
X174938240Y-126902095D02*
X174938240Y-127473523D01*
X174938240Y-127187809D02*
X173938240Y-127187809D01*
X174081098Y-127283047D01*
X174176336Y-127378285D01*
X174223955Y-127473523D01*
X282253240Y-109312285D02*
X281253240Y-109312285D01*
X281253240Y-109074190D01*
X281300860Y-108931333D01*
X281396098Y-108836095D01*
X281491336Y-108788476D01*
X281681812Y-108740857D01*
X281824669Y-108740857D01*
X282015145Y-108788476D01*
X282110383Y-108836095D01*
X282205621Y-108931333D01*
X282253240Y-109074190D01*
X282253240Y-109312285D01*
X281253240Y-108407523D02*
X281253240Y-107788476D01*
X281634193Y-108121809D01*
X281634193Y-107978952D01*
X281681812Y-107883714D01*
X281729431Y-107836095D01*
X281824669Y-107788476D01*
X282062764Y-107788476D01*
X282158002Y-107836095D01*
X282205621Y-107883714D01*
X282253240Y-107978952D01*
X282253240Y-108264666D01*
X282205621Y-108359904D01*
X282158002Y-108407523D01*
X281253240Y-107169428D02*
X281253240Y-107074190D01*
X281300860Y-106978952D01*
X281348479Y-106931333D01*
X281443717Y-106883714D01*
X281634193Y-106836095D01*
X281872288Y-106836095D01*
X282062764Y-106883714D01*
X282158002Y-106931333D01*
X282205621Y-106978952D01*
X282253240Y-107074190D01*
X282253240Y-107169428D01*
X282205621Y-107264666D01*
X282158002Y-107312285D01*
X282062764Y-107359904D01*
X281872288Y-107407523D01*
X281634193Y-107407523D01*
X281443717Y-107359904D01*
X281348479Y-107312285D01*
X281300860Y-107264666D01*
X281253240Y-107169428D01*
X267394240Y-109312285D02*
X266394240Y-109312285D01*
X266394240Y-109074190D01*
X266441860Y-108931333D01*
X266537098Y-108836095D01*
X266632336Y-108788476D01*
X266822812Y-108740857D01*
X266965669Y-108740857D01*
X267156145Y-108788476D01*
X267251383Y-108836095D01*
X267346621Y-108931333D01*
X267394240Y-109074190D01*
X267394240Y-109312285D01*
X266489479Y-108359904D02*
X266441860Y-108312285D01*
X266394240Y-108217047D01*
X266394240Y-107978952D01*
X266441860Y-107883714D01*
X266489479Y-107836095D01*
X266584717Y-107788476D01*
X266679955Y-107788476D01*
X266822812Y-107836095D01*
X267394240Y-108407523D01*
X267394240Y-107788476D01*
X267394240Y-107312285D02*
X267394240Y-107121809D01*
X267346621Y-107026571D01*
X267299002Y-106978952D01*
X267156145Y-106883714D01*
X266965669Y-106836095D01*
X266584717Y-106836095D01*
X266489479Y-106883714D01*
X266441860Y-106931333D01*
X266394240Y-107026571D01*
X266394240Y-107217047D01*
X266441860Y-107312285D01*
X266489479Y-107359904D01*
X266584717Y-107407523D01*
X266822812Y-107407523D01*
X266918050Y-107359904D01*
X266965669Y-107312285D01*
X267013288Y-107217047D01*
X267013288Y-107026571D01*
X266965669Y-106931333D01*
X266918050Y-106883714D01*
X266822812Y-106836095D01*
X248344240Y-109312285D02*
X247344240Y-109312285D01*
X247344240Y-109074190D01*
X247391860Y-108931333D01*
X247487098Y-108836095D01*
X247582336Y-108788476D01*
X247772812Y-108740857D01*
X247915669Y-108740857D01*
X248106145Y-108788476D01*
X248201383Y-108836095D01*
X248296621Y-108931333D01*
X248344240Y-109074190D01*
X248344240Y-109312285D01*
X247439479Y-108359904D02*
X247391860Y-108312285D01*
X247344240Y-108217047D01*
X247344240Y-107978952D01*
X247391860Y-107883714D01*
X247439479Y-107836095D01*
X247534717Y-107788476D01*
X247629955Y-107788476D01*
X247772812Y-107836095D01*
X248344240Y-108407523D01*
X248344240Y-107788476D01*
X247772812Y-107217047D02*
X247725193Y-107312285D01*
X247677574Y-107359904D01*
X247582336Y-107407523D01*
X247534717Y-107407523D01*
X247439479Y-107359904D01*
X247391860Y-107312285D01*
X247344240Y-107217047D01*
X247344240Y-107026571D01*
X247391860Y-106931333D01*
X247439479Y-106883714D01*
X247534717Y-106836095D01*
X247582336Y-106836095D01*
X247677574Y-106883714D01*
X247725193Y-106931333D01*
X247772812Y-107026571D01*
X247772812Y-107217047D01*
X247820431Y-107312285D01*
X247868050Y-107359904D01*
X247963288Y-107407523D01*
X248153764Y-107407523D01*
X248249002Y-107359904D01*
X248296621Y-107312285D01*
X248344240Y-107217047D01*
X248344240Y-107026571D01*
X248296621Y-106931333D01*
X248249002Y-106883714D01*
X248153764Y-106836095D01*
X247963288Y-106836095D01*
X247868050Y-106883714D01*
X247820431Y-106931333D01*
X247772812Y-107026571D01*
X229294240Y-109312285D02*
X228294240Y-109312285D01*
X228294240Y-109074190D01*
X228341860Y-108931333D01*
X228437098Y-108836095D01*
X228532336Y-108788476D01*
X228722812Y-108740857D01*
X228865669Y-108740857D01*
X229056145Y-108788476D01*
X229151383Y-108836095D01*
X229246621Y-108931333D01*
X229294240Y-109074190D01*
X229294240Y-109312285D01*
X228389479Y-108359904D02*
X228341860Y-108312285D01*
X228294240Y-108217047D01*
X228294240Y-107978952D01*
X228341860Y-107883714D01*
X228389479Y-107836095D01*
X228484717Y-107788476D01*
X228579955Y-107788476D01*
X228722812Y-107836095D01*
X229294240Y-108407523D01*
X229294240Y-107788476D01*
X228294240Y-107455142D02*
X228294240Y-106788476D01*
X229294240Y-107217047D01*
X210244240Y-109312285D02*
X209244240Y-109312285D01*
X209244240Y-109074190D01*
X209291860Y-108931333D01*
X209387098Y-108836095D01*
X209482336Y-108788476D01*
X209672812Y-108740857D01*
X209815669Y-108740857D01*
X210006145Y-108788476D01*
X210101383Y-108836095D01*
X210196621Y-108931333D01*
X210244240Y-109074190D01*
X210244240Y-109312285D01*
X209339479Y-108359904D02*
X209291860Y-108312285D01*
X209244240Y-108217047D01*
X209244240Y-107978952D01*
X209291860Y-107883714D01*
X209339479Y-107836095D01*
X209434717Y-107788476D01*
X209529955Y-107788476D01*
X209672812Y-107836095D01*
X210244240Y-108407523D01*
X210244240Y-107788476D01*
X209244240Y-106931333D02*
X209244240Y-107121809D01*
X209291860Y-107217047D01*
X209339479Y-107264666D01*
X209482336Y-107359904D01*
X209672812Y-107407523D01*
X210053764Y-107407523D01*
X210149002Y-107359904D01*
X210196621Y-107312285D01*
X210244240Y-107217047D01*
X210244240Y-107026571D01*
X210196621Y-106931333D01*
X210149002Y-106883714D01*
X210053764Y-106836095D01*
X209815669Y-106836095D01*
X209720431Y-106883714D01*
X209672812Y-106931333D01*
X209625193Y-107026571D01*
X209625193Y-107217047D01*
X209672812Y-107312285D01*
X209720431Y-107359904D01*
X209815669Y-107407523D01*
X181542240Y-109312285D02*
X180542240Y-109312285D01*
X180542240Y-109074190D01*
X180589860Y-108931333D01*
X180685098Y-108836095D01*
X180780336Y-108788476D01*
X180970812Y-108740857D01*
X181113669Y-108740857D01*
X181304145Y-108788476D01*
X181399383Y-108836095D01*
X181494621Y-108931333D01*
X181542240Y-109074190D01*
X181542240Y-109312285D01*
X180637479Y-108359904D02*
X180589860Y-108312285D01*
X180542240Y-108217047D01*
X180542240Y-107978952D01*
X180589860Y-107883714D01*
X180637479Y-107836095D01*
X180732717Y-107788476D01*
X180827955Y-107788476D01*
X180970812Y-107836095D01*
X181542240Y-108407523D01*
X181542240Y-107788476D01*
X180542240Y-106883714D02*
X180542240Y-107359904D01*
X181018431Y-107407523D01*
X180970812Y-107359904D01*
X180923193Y-107264666D01*
X180923193Y-107026571D01*
X180970812Y-106931333D01*
X181018431Y-106883714D01*
X181113669Y-106836095D01*
X181351764Y-106836095D01*
X181447002Y-106883714D01*
X181494621Y-106931333D01*
X181542240Y-107026571D01*
X181542240Y-107264666D01*
X181494621Y-107359904D01*
X181447002Y-107407523D01*
X162534572Y-109312285D02*
X161534572Y-109312285D01*
X161534572Y-109074190D01*
X161582192Y-108931333D01*
X161677430Y-108836095D01*
X161772668Y-108788476D01*
X161963144Y-108740857D01*
X162106001Y-108740857D01*
X162296477Y-108788476D01*
X162391715Y-108836095D01*
X162486953Y-108931333D01*
X162534572Y-109074190D01*
X162534572Y-109312285D01*
X161629811Y-108359904D02*
X161582192Y-108312285D01*
X161534572Y-108217047D01*
X161534572Y-107978952D01*
X161582192Y-107883714D01*
X161629811Y-107836095D01*
X161725049Y-107788476D01*
X161820287Y-107788476D01*
X161963144Y-107836095D01*
X162534572Y-108407523D01*
X162534572Y-107788476D01*
X161867906Y-106931333D02*
X162534572Y-106931333D01*
X161486953Y-107169428D02*
X162201239Y-107407523D01*
X162201239Y-106788476D01*
X143526906Y-109312285D02*
X142526906Y-109312285D01*
X142526906Y-109074190D01*
X142574526Y-108931333D01*
X142669764Y-108836095D01*
X142765002Y-108788476D01*
X142955478Y-108740857D01*
X143098335Y-108740857D01*
X143288811Y-108788476D01*
X143384049Y-108836095D01*
X143479287Y-108931333D01*
X143526906Y-109074190D01*
X143526906Y-109312285D01*
X142622145Y-108359904D02*
X142574526Y-108312285D01*
X142526906Y-108217047D01*
X142526906Y-107978952D01*
X142574526Y-107883714D01*
X142622145Y-107836095D01*
X142717383Y-107788476D01*
X142812621Y-107788476D01*
X142955478Y-107836095D01*
X143526906Y-108407523D01*
X143526906Y-107788476D01*
X142526906Y-107455142D02*
X142526906Y-106836095D01*
X142907859Y-107169428D01*
X142907859Y-107026571D01*
X142955478Y-106931333D01*
X143003097Y-106883714D01*
X143098335Y-106836095D01*
X143336430Y-106836095D01*
X143431668Y-106883714D01*
X143479287Y-106931333D01*
X143526906Y-107026571D01*
X143526906Y-107312285D01*
X143479287Y-107407523D01*
X143431668Y-107455142D01*
X124519240Y-109312285D02*
X123519240Y-109312285D01*
X123519240Y-109074190D01*
X123566860Y-108931333D01*
X123662098Y-108836095D01*
X123757336Y-108788476D01*
X123947812Y-108740857D01*
X124090669Y-108740857D01*
X124281145Y-108788476D01*
X124376383Y-108836095D01*
X124471621Y-108931333D01*
X124519240Y-109074190D01*
X124519240Y-109312285D01*
X123614479Y-108359904D02*
X123566860Y-108312285D01*
X123519240Y-108217047D01*
X123519240Y-107978952D01*
X123566860Y-107883714D01*
X123614479Y-107836095D01*
X123709717Y-107788476D01*
X123804955Y-107788476D01*
X123947812Y-107836095D01*
X124519240Y-108407523D01*
X124519240Y-107788476D01*
X123614479Y-107407523D02*
X123566860Y-107359904D01*
X123519240Y-107264666D01*
X123519240Y-107026571D01*
X123566860Y-106931333D01*
X123614479Y-106883714D01*
X123709717Y-106836095D01*
X123804955Y-106836095D01*
X123947812Y-106883714D01*
X124519240Y-107455142D01*
X124519240Y-106836095D01*
X105183240Y-109312285D02*
X104183240Y-109312285D01*
X104183240Y-109074190D01*
X104230860Y-108931333D01*
X104326098Y-108836095D01*
X104421336Y-108788476D01*
X104611812Y-108740857D01*
X104754669Y-108740857D01*
X104945145Y-108788476D01*
X105040383Y-108836095D01*
X105135621Y-108931333D01*
X105183240Y-109074190D01*
X105183240Y-109312285D01*
X104278479Y-108359904D02*
X104230860Y-108312285D01*
X104183240Y-108217047D01*
X104183240Y-107978952D01*
X104230860Y-107883714D01*
X104278479Y-107836095D01*
X104373717Y-107788476D01*
X104468955Y-107788476D01*
X104611812Y-107836095D01*
X105183240Y-108407523D01*
X105183240Y-107788476D01*
X105183240Y-106836095D02*
X105183240Y-107407523D01*
X105183240Y-107121809D02*
X104183240Y-107121809D01*
X104326098Y-107217047D01*
X104421336Y-107312285D01*
X104468955Y-107407523D01*
X281618240Y-90149785D02*
X280618240Y-90149785D01*
X280618240Y-89911690D01*
X280665860Y-89768833D01*
X280761098Y-89673595D01*
X280856336Y-89625976D01*
X281046812Y-89578357D01*
X281189669Y-89578357D01*
X281380145Y-89625976D01*
X281475383Y-89673595D01*
X281570621Y-89768833D01*
X281618240Y-89911690D01*
X281618240Y-90149785D01*
X280713479Y-89197404D02*
X280665860Y-89149785D01*
X280618240Y-89054547D01*
X280618240Y-88816452D01*
X280665860Y-88721214D01*
X280713479Y-88673595D01*
X280808717Y-88625976D01*
X280903955Y-88625976D01*
X281046812Y-88673595D01*
X281618240Y-89245023D01*
X281618240Y-88625976D01*
X280618240Y-88006928D02*
X280618240Y-87911690D01*
X280665860Y-87816452D01*
X280713479Y-87768833D01*
X280808717Y-87721214D01*
X280999193Y-87673595D01*
X281237288Y-87673595D01*
X281427764Y-87721214D01*
X281523002Y-87768833D01*
X281570621Y-87816452D01*
X281618240Y-87911690D01*
X281618240Y-88006928D01*
X281570621Y-88102166D01*
X281523002Y-88149785D01*
X281427764Y-88197404D01*
X281237288Y-88245023D01*
X280999193Y-88245023D01*
X280808717Y-88197404D01*
X280713479Y-88149785D01*
X280665860Y-88102166D01*
X280618240Y-88006928D01*
X262568240Y-90149785D02*
X261568240Y-90149785D01*
X261568240Y-89911690D01*
X261615860Y-89768833D01*
X261711098Y-89673595D01*
X261806336Y-89625976D01*
X261996812Y-89578357D01*
X262139669Y-89578357D01*
X262330145Y-89625976D01*
X262425383Y-89673595D01*
X262520621Y-89768833D01*
X262568240Y-89911690D01*
X262568240Y-90149785D01*
X262568240Y-88625976D02*
X262568240Y-89197404D01*
X262568240Y-88911690D02*
X261568240Y-88911690D01*
X261711098Y-89006928D01*
X261806336Y-89102166D01*
X261853955Y-89197404D01*
X262568240Y-88149785D02*
X262568240Y-87959309D01*
X262520621Y-87864071D01*
X262473002Y-87816452D01*
X262330145Y-87721214D01*
X262139669Y-87673595D01*
X261758717Y-87673595D01*
X261663479Y-87721214D01*
X261615860Y-87768833D01*
X261568240Y-87864071D01*
X261568240Y-88054547D01*
X261615860Y-88149785D01*
X261663479Y-88197404D01*
X261758717Y-88245023D01*
X261996812Y-88245023D01*
X262092050Y-88197404D01*
X262139669Y-88149785D01*
X262187288Y-88054547D01*
X262187288Y-87864071D01*
X262139669Y-87768833D01*
X262092050Y-87721214D01*
X261996812Y-87673595D01*
X243518240Y-90149785D02*
X242518240Y-90149785D01*
X242518240Y-89911690D01*
X242565860Y-89768833D01*
X242661098Y-89673595D01*
X242756336Y-89625976D01*
X242946812Y-89578357D01*
X243089669Y-89578357D01*
X243280145Y-89625976D01*
X243375383Y-89673595D01*
X243470621Y-89768833D01*
X243518240Y-89911690D01*
X243518240Y-90149785D01*
X243518240Y-88625976D02*
X243518240Y-89197404D01*
X243518240Y-88911690D02*
X242518240Y-88911690D01*
X242661098Y-89006928D01*
X242756336Y-89102166D01*
X242803955Y-89197404D01*
X242946812Y-88054547D02*
X242899193Y-88149785D01*
X242851574Y-88197404D01*
X242756336Y-88245023D01*
X242708717Y-88245023D01*
X242613479Y-88197404D01*
X242565860Y-88149785D01*
X242518240Y-88054547D01*
X242518240Y-87864071D01*
X242565860Y-87768833D01*
X242613479Y-87721214D01*
X242708717Y-87673595D01*
X242756336Y-87673595D01*
X242851574Y-87721214D01*
X242899193Y-87768833D01*
X242946812Y-87864071D01*
X242946812Y-88054547D01*
X242994431Y-88149785D01*
X243042050Y-88197404D01*
X243137288Y-88245023D01*
X243327764Y-88245023D01*
X243423002Y-88197404D01*
X243470621Y-88149785D01*
X243518240Y-88054547D01*
X243518240Y-87864071D01*
X243470621Y-87768833D01*
X243423002Y-87721214D01*
X243327764Y-87673595D01*
X243137288Y-87673595D01*
X243042050Y-87721214D01*
X242994431Y-87768833D01*
X242946812Y-87864071D01*
X224468240Y-90149785D02*
X223468240Y-90149785D01*
X223468240Y-89911690D01*
X223515860Y-89768833D01*
X223611098Y-89673595D01*
X223706336Y-89625976D01*
X223896812Y-89578357D01*
X224039669Y-89578357D01*
X224230145Y-89625976D01*
X224325383Y-89673595D01*
X224420621Y-89768833D01*
X224468240Y-89911690D01*
X224468240Y-90149785D01*
X224468240Y-88625976D02*
X224468240Y-89197404D01*
X224468240Y-88911690D02*
X223468240Y-88911690D01*
X223611098Y-89006928D01*
X223706336Y-89102166D01*
X223753955Y-89197404D01*
X223468240Y-88292642D02*
X223468240Y-87625976D01*
X224468240Y-88054547D01*
X205418240Y-90149785D02*
X204418240Y-90149785D01*
X204418240Y-89911690D01*
X204465860Y-89768833D01*
X204561098Y-89673595D01*
X204656336Y-89625976D01*
X204846812Y-89578357D01*
X204989669Y-89578357D01*
X205180145Y-89625976D01*
X205275383Y-89673595D01*
X205370621Y-89768833D01*
X205418240Y-89911690D01*
X205418240Y-90149785D01*
X205418240Y-88625976D02*
X205418240Y-89197404D01*
X205418240Y-88911690D02*
X204418240Y-88911690D01*
X204561098Y-89006928D01*
X204656336Y-89102166D01*
X204703955Y-89197404D01*
X204418240Y-87768833D02*
X204418240Y-87959309D01*
X204465860Y-88054547D01*
X204513479Y-88102166D01*
X204656336Y-88197404D01*
X204846812Y-88245023D01*
X205227764Y-88245023D01*
X205323002Y-88197404D01*
X205370621Y-88149785D01*
X205418240Y-88054547D01*
X205418240Y-87864071D01*
X205370621Y-87768833D01*
X205323002Y-87721214D01*
X205227764Y-87673595D01*
X204989669Y-87673595D01*
X204894431Y-87721214D01*
X204846812Y-87768833D01*
X204799193Y-87864071D01*
X204799193Y-88054547D01*
X204846812Y-88149785D01*
X204894431Y-88197404D01*
X204989669Y-88245023D01*
X186368240Y-90149785D02*
X185368240Y-90149785D01*
X185368240Y-89911690D01*
X185415860Y-89768833D01*
X185511098Y-89673595D01*
X185606336Y-89625976D01*
X185796812Y-89578357D01*
X185939669Y-89578357D01*
X186130145Y-89625976D01*
X186225383Y-89673595D01*
X186320621Y-89768833D01*
X186368240Y-89911690D01*
X186368240Y-90149785D01*
X186368240Y-88625976D02*
X186368240Y-89197404D01*
X186368240Y-88911690D02*
X185368240Y-88911690D01*
X185511098Y-89006928D01*
X185606336Y-89102166D01*
X185653955Y-89197404D01*
X185368240Y-87721214D02*
X185368240Y-88197404D01*
X185844431Y-88245023D01*
X185796812Y-88197404D01*
X185749193Y-88102166D01*
X185749193Y-87864071D01*
X185796812Y-87768833D01*
X185844431Y-87721214D01*
X185939669Y-87673595D01*
X186177764Y-87673595D01*
X186273002Y-87721214D01*
X186320621Y-87768833D01*
X186368240Y-87864071D01*
X186368240Y-88102166D01*
X186320621Y-88197404D01*
X186273002Y-88245023D01*
X167318240Y-90149785D02*
X166318240Y-90149785D01*
X166318240Y-89911690D01*
X166365860Y-89768833D01*
X166461098Y-89673595D01*
X166556336Y-89625976D01*
X166746812Y-89578357D01*
X166889669Y-89578357D01*
X167080145Y-89625976D01*
X167175383Y-89673595D01*
X167270621Y-89768833D01*
X167318240Y-89911690D01*
X167318240Y-90149785D01*
X167318240Y-88625976D02*
X167318240Y-89197404D01*
X167318240Y-88911690D02*
X166318240Y-88911690D01*
X166461098Y-89006928D01*
X166556336Y-89102166D01*
X166603955Y-89197404D01*
X166651574Y-87768833D02*
X167318240Y-87768833D01*
X166270621Y-88006928D02*
X166984907Y-88245023D01*
X166984907Y-87625976D01*
X148268240Y-90149785D02*
X147268240Y-90149785D01*
X147268240Y-89911690D01*
X147315860Y-89768833D01*
X147411098Y-89673595D01*
X147506336Y-89625976D01*
X147696812Y-89578357D01*
X147839669Y-89578357D01*
X148030145Y-89625976D01*
X148125383Y-89673595D01*
X148220621Y-89768833D01*
X148268240Y-89911690D01*
X148268240Y-90149785D01*
X148268240Y-88625976D02*
X148268240Y-89197404D01*
X148268240Y-88911690D02*
X147268240Y-88911690D01*
X147411098Y-89006928D01*
X147506336Y-89102166D01*
X147553955Y-89197404D01*
X147268240Y-88292642D02*
X147268240Y-87673595D01*
X147649193Y-88006928D01*
X147649193Y-87864071D01*
X147696812Y-87768833D01*
X147744431Y-87721214D01*
X147839669Y-87673595D01*
X148077764Y-87673595D01*
X148173002Y-87721214D01*
X148220621Y-87768833D01*
X148268240Y-87864071D01*
X148268240Y-88149785D01*
X148220621Y-88245023D01*
X148173002Y-88292642D01*
X129218240Y-90149785D02*
X128218240Y-90149785D01*
X128218240Y-89911690D01*
X128265860Y-89768833D01*
X128361098Y-89673595D01*
X128456336Y-89625976D01*
X128646812Y-89578357D01*
X128789669Y-89578357D01*
X128980145Y-89625976D01*
X129075383Y-89673595D01*
X129170621Y-89768833D01*
X129218240Y-89911690D01*
X129218240Y-90149785D01*
X129218240Y-88625976D02*
X129218240Y-89197404D01*
X129218240Y-88911690D02*
X128218240Y-88911690D01*
X128361098Y-89006928D01*
X128456336Y-89102166D01*
X128503955Y-89197404D01*
X128313479Y-88245023D02*
X128265860Y-88197404D01*
X128218240Y-88102166D01*
X128218240Y-87864071D01*
X128265860Y-87768833D01*
X128313479Y-87721214D01*
X128408717Y-87673595D01*
X128503955Y-87673595D01*
X128646812Y-87721214D01*
X129218240Y-88292642D01*
X129218240Y-87673595D01*
X110168240Y-90149785D02*
X109168240Y-90149785D01*
X109168240Y-89911690D01*
X109215860Y-89768833D01*
X109311098Y-89673595D01*
X109406336Y-89625976D01*
X109596812Y-89578357D01*
X109739669Y-89578357D01*
X109930145Y-89625976D01*
X110025383Y-89673595D01*
X110120621Y-89768833D01*
X110168240Y-89911690D01*
X110168240Y-90149785D01*
X110168240Y-88625976D02*
X110168240Y-89197404D01*
X110168240Y-88911690D02*
X109168240Y-88911690D01*
X109311098Y-89006928D01*
X109406336Y-89102166D01*
X109453955Y-89197404D01*
X110168240Y-87673595D02*
X110168240Y-88245023D01*
X110168240Y-87959309D02*
X109168240Y-87959309D01*
X109311098Y-88054547D01*
X109406336Y-88149785D01*
X109453955Y-88245023D01*
X286297240Y-71348285D02*
X285297240Y-71348285D01*
X285297240Y-71110190D01*
X285344860Y-70967333D01*
X285440098Y-70872095D01*
X285535336Y-70824476D01*
X285725812Y-70776857D01*
X285868669Y-70776857D01*
X286059145Y-70824476D01*
X286154383Y-70872095D01*
X286249621Y-70967333D01*
X286297240Y-71110190D01*
X286297240Y-71348285D01*
X286297240Y-69824476D02*
X286297240Y-70395904D01*
X286297240Y-70110190D02*
X285297240Y-70110190D01*
X285440098Y-70205428D01*
X285535336Y-70300666D01*
X285582955Y-70395904D01*
X285297240Y-69205428D02*
X285297240Y-69110190D01*
X285344860Y-69014952D01*
X285392479Y-68967333D01*
X285487717Y-68919714D01*
X285678193Y-68872095D01*
X285916288Y-68872095D01*
X286106764Y-68919714D01*
X286202002Y-68967333D01*
X286249621Y-69014952D01*
X286297240Y-69110190D01*
X286297240Y-69205428D01*
X286249621Y-69300666D01*
X286202002Y-69348285D01*
X286106764Y-69395904D01*
X285916288Y-69443523D01*
X285678193Y-69443523D01*
X285487717Y-69395904D01*
X285392479Y-69348285D01*
X285344860Y-69300666D01*
X285297240Y-69205428D01*
X267297240Y-70872095D02*
X266297240Y-70872095D01*
X266297240Y-70634000D01*
X266344860Y-70491142D01*
X266440098Y-70395904D01*
X266535336Y-70348285D01*
X266725812Y-70300666D01*
X266868669Y-70300666D01*
X267059145Y-70348285D01*
X267154383Y-70395904D01*
X267249621Y-70491142D01*
X267297240Y-70634000D01*
X267297240Y-70872095D01*
X267297240Y-69824476D02*
X267297240Y-69634000D01*
X267249621Y-69538761D01*
X267202002Y-69491142D01*
X267059145Y-69395904D01*
X266868669Y-69348285D01*
X266487717Y-69348285D01*
X266392479Y-69395904D01*
X266344860Y-69443523D01*
X266297240Y-69538761D01*
X266297240Y-69729238D01*
X266344860Y-69824476D01*
X266392479Y-69872095D01*
X266487717Y-69919714D01*
X266725812Y-69919714D01*
X266821050Y-69872095D01*
X266868669Y-69824476D01*
X266916288Y-69729238D01*
X266916288Y-69538761D01*
X266868669Y-69443523D01*
X266821050Y-69395904D01*
X266725812Y-69348285D01*
X248297240Y-70872095D02*
X247297240Y-70872095D01*
X247297240Y-70634000D01*
X247344860Y-70491142D01*
X247440098Y-70395904D01*
X247535336Y-70348285D01*
X247725812Y-70300666D01*
X247868669Y-70300666D01*
X248059145Y-70348285D01*
X248154383Y-70395904D01*
X248249621Y-70491142D01*
X248297240Y-70634000D01*
X248297240Y-70872095D01*
X247725812Y-69729238D02*
X247678193Y-69824476D01*
X247630574Y-69872095D01*
X247535336Y-69919714D01*
X247487717Y-69919714D01*
X247392479Y-69872095D01*
X247344860Y-69824476D01*
X247297240Y-69729238D01*
X247297240Y-69538761D01*
X247344860Y-69443523D01*
X247392479Y-69395904D01*
X247487717Y-69348285D01*
X247535336Y-69348285D01*
X247630574Y-69395904D01*
X247678193Y-69443523D01*
X247725812Y-69538761D01*
X247725812Y-69729238D01*
X247773431Y-69824476D01*
X247821050Y-69872095D01*
X247916288Y-69919714D01*
X248106764Y-69919714D01*
X248202002Y-69872095D01*
X248249621Y-69824476D01*
X248297240Y-69729238D01*
X248297240Y-69538761D01*
X248249621Y-69443523D01*
X248202002Y-69395904D01*
X248106764Y-69348285D01*
X247916288Y-69348285D01*
X247821050Y-69395904D01*
X247773431Y-69443523D01*
X247725812Y-69538761D01*
X229297240Y-70872095D02*
X228297240Y-70872095D01*
X228297240Y-70634000D01*
X228344860Y-70491142D01*
X228440098Y-70395904D01*
X228535336Y-70348285D01*
X228725812Y-70300666D01*
X228868669Y-70300666D01*
X229059145Y-70348285D01*
X229154383Y-70395904D01*
X229249621Y-70491142D01*
X229297240Y-70634000D01*
X229297240Y-70872095D01*
X228297240Y-69967333D02*
X228297240Y-69300666D01*
X229297240Y-69729238D01*
X210297240Y-70872095D02*
X209297240Y-70872095D01*
X209297240Y-70634000D01*
X209344860Y-70491142D01*
X209440098Y-70395904D01*
X209535336Y-70348285D01*
X209725812Y-70300666D01*
X209868669Y-70300666D01*
X210059145Y-70348285D01*
X210154383Y-70395904D01*
X210249621Y-70491142D01*
X210297240Y-70634000D01*
X210297240Y-70872095D01*
X209297240Y-69443523D02*
X209297240Y-69634000D01*
X209344860Y-69729238D01*
X209392479Y-69776857D01*
X209535336Y-69872095D01*
X209725812Y-69919714D01*
X210106764Y-69919714D01*
X210202002Y-69872095D01*
X210249621Y-69824476D01*
X210297240Y-69729238D01*
X210297240Y-69538761D01*
X210249621Y-69443523D01*
X210202002Y-69395904D01*
X210106764Y-69348285D01*
X209868669Y-69348285D01*
X209773431Y-69395904D01*
X209725812Y-69443523D01*
X209678193Y-69538761D01*
X209678193Y-69729238D01*
X209725812Y-69824476D01*
X209773431Y-69872095D01*
X209868669Y-69919714D01*
X181297240Y-70872095D02*
X180297240Y-70872095D01*
X180297240Y-70634000D01*
X180344860Y-70491142D01*
X180440098Y-70395904D01*
X180535336Y-70348285D01*
X180725812Y-70300666D01*
X180868669Y-70300666D01*
X181059145Y-70348285D01*
X181154383Y-70395904D01*
X181249621Y-70491142D01*
X181297240Y-70634000D01*
X181297240Y-70872095D01*
X180297240Y-69395904D02*
X180297240Y-69872095D01*
X180773431Y-69919714D01*
X180725812Y-69872095D01*
X180678193Y-69776857D01*
X180678193Y-69538761D01*
X180725812Y-69443523D01*
X180773431Y-69395904D01*
X180868669Y-69348285D01*
X181106764Y-69348285D01*
X181202002Y-69395904D01*
X181249621Y-69443523D01*
X181297240Y-69538761D01*
X181297240Y-69776857D01*
X181249621Y-69872095D01*
X181202002Y-69919714D01*
X162297240Y-70872095D02*
X161297240Y-70872095D01*
X161297240Y-70634000D01*
X161344860Y-70491142D01*
X161440098Y-70395904D01*
X161535336Y-70348285D01*
X161725812Y-70300666D01*
X161868669Y-70300666D01*
X162059145Y-70348285D01*
X162154383Y-70395904D01*
X162249621Y-70491142D01*
X162297240Y-70634000D01*
X162297240Y-70872095D01*
X161630574Y-69443523D02*
X162297240Y-69443523D01*
X161249621Y-69681619D02*
X161963907Y-69919714D01*
X161963907Y-69300666D01*
X143297240Y-70872095D02*
X142297240Y-70872095D01*
X142297240Y-70634000D01*
X142344860Y-70491142D01*
X142440098Y-70395904D01*
X142535336Y-70348285D01*
X142725812Y-70300666D01*
X142868669Y-70300666D01*
X143059145Y-70348285D01*
X143154383Y-70395904D01*
X143249621Y-70491142D01*
X143297240Y-70634000D01*
X143297240Y-70872095D01*
X142297240Y-69967333D02*
X142297240Y-69348285D01*
X142678193Y-69681619D01*
X142678193Y-69538761D01*
X142725812Y-69443523D01*
X142773431Y-69395904D01*
X142868669Y-69348285D01*
X143106764Y-69348285D01*
X143202002Y-69395904D01*
X143249621Y-69443523D01*
X143297240Y-69538761D01*
X143297240Y-69824476D01*
X143249621Y-69919714D01*
X143202002Y-69967333D01*
X124297240Y-70872095D02*
X123297240Y-70872095D01*
X123297240Y-70634000D01*
X123344860Y-70491142D01*
X123440098Y-70395904D01*
X123535336Y-70348285D01*
X123725812Y-70300666D01*
X123868669Y-70300666D01*
X124059145Y-70348285D01*
X124154383Y-70395904D01*
X124249621Y-70491142D01*
X124297240Y-70634000D01*
X124297240Y-70872095D01*
X123392479Y-69919714D02*
X123344860Y-69872095D01*
X123297240Y-69776857D01*
X123297240Y-69538761D01*
X123344860Y-69443523D01*
X123392479Y-69395904D01*
X123487717Y-69348285D01*
X123582955Y-69348285D01*
X123725812Y-69395904D01*
X124297240Y-69967333D01*
X124297240Y-69348285D01*
X105469240Y-70863095D02*
X104469240Y-70863095D01*
X104469240Y-70625000D01*
X104516860Y-70482142D01*
X104612098Y-70386904D01*
X104707336Y-70339285D01*
X104897812Y-70291666D01*
X105040669Y-70291666D01*
X105231145Y-70339285D01*
X105326383Y-70386904D01*
X105421621Y-70482142D01*
X105469240Y-70625000D01*
X105469240Y-70863095D01*
X105469240Y-69339285D02*
X105469240Y-69910714D01*
X105469240Y-69625000D02*
X104469240Y-69625000D01*
X104612098Y-69720238D01*
X104707336Y-69815476D01*
X104754955Y-69910714D01*
X289063574Y-72097580D02*
X289063574Y-71097580D01*
X289301669Y-71097580D01*
X289444526Y-71145200D01*
X289539764Y-71240438D01*
X289587383Y-71335676D01*
X289635002Y-71526152D01*
X289635002Y-71669009D01*
X289587383Y-71859485D01*
X289539764Y-71954723D01*
X289444526Y-72049961D01*
X289301669Y-72097580D01*
X289063574Y-72097580D01*
X290492145Y-71430914D02*
X290492145Y-72097580D01*
X290254050Y-71049961D02*
X290015955Y-71764247D01*
X290635002Y-71764247D01*
X291539764Y-72097580D02*
X290968336Y-72097580D01*
X291254050Y-72097580D02*
X291254050Y-71097580D01*
X291158812Y-71240438D01*
X291063574Y-71335676D01*
X290968336Y-71383295D01*
X286413574Y-73997580D02*
X285842145Y-73997580D01*
X286127860Y-73997580D02*
X286127860Y-72997580D01*
X286032621Y-73140438D01*
X285937383Y-73235676D01*
X285842145Y-73283295D01*
X294143574Y-110836380D02*
X294143574Y-109836380D01*
X294381669Y-109836380D01*
X294524526Y-109884000D01*
X294619764Y-109979238D01*
X294667383Y-110074476D01*
X294715002Y-110264952D01*
X294715002Y-110407809D01*
X294667383Y-110598285D01*
X294619764Y-110693523D01*
X294524526Y-110788761D01*
X294381669Y-110836380D01*
X294143574Y-110836380D01*
X295572145Y-110169714D02*
X295572145Y-110836380D01*
X295334050Y-109788761D02*
X295095955Y-110503047D01*
X295715002Y-110503047D01*
X296286431Y-109836380D02*
X296381669Y-109836380D01*
X296476907Y-109884000D01*
X296524526Y-109931619D01*
X296572145Y-110026857D01*
X296619764Y-110217333D01*
X296619764Y-110455428D01*
X296572145Y-110645904D01*
X296524526Y-110741142D01*
X296476907Y-110788761D01*
X296381669Y-110836380D01*
X296286431Y-110836380D01*
X296191193Y-110788761D01*
X296143574Y-110741142D01*
X296095955Y-110645904D01*
X296048336Y-110455428D01*
X296048336Y-110217333D01*
X296095955Y-110026857D01*
X296143574Y-109931619D01*
X296191193Y-109884000D01*
X296286431Y-109836380D01*
X287175574Y-109236380D02*
X286604145Y-109236380D01*
X286889860Y-109236380D02*
X286889860Y-108236380D01*
X286794621Y-108379238D01*
X286699383Y-108474476D01*
X286604145Y-108522095D01*
X244570274Y-112797380D02*
X244570274Y-111797380D01*
X244808369Y-111797380D01*
X244951226Y-111845000D01*
X245046464Y-111940238D01*
X245094083Y-112035476D01*
X245141702Y-112225952D01*
X245141702Y-112368809D01*
X245094083Y-112559285D01*
X245046464Y-112654523D01*
X244951226Y-112749761D01*
X244808369Y-112797380D01*
X244570274Y-112797380D01*
X245475036Y-111797380D02*
X246094083Y-111797380D01*
X245760750Y-112178333D01*
X245903607Y-112178333D01*
X245998845Y-112225952D01*
X246046464Y-112273571D01*
X246094083Y-112368809D01*
X246094083Y-112606904D01*
X246046464Y-112702142D01*
X245998845Y-112749761D01*
X245903607Y-112797380D01*
X245617893Y-112797380D01*
X245522655Y-112749761D01*
X245475036Y-112702142D01*
X246570274Y-112797380D02*
X246760750Y-112797380D01*
X246855988Y-112749761D01*
X246903607Y-112702142D01*
X246998845Y-112559285D01*
X247046464Y-112368809D01*
X247046464Y-111987857D01*
X246998845Y-111892619D01*
X246951226Y-111845000D01*
X246855988Y-111797380D01*
X246665512Y-111797380D01*
X246570274Y-111845000D01*
X246522655Y-111892619D01*
X246475036Y-111987857D01*
X246475036Y-112225952D01*
X246522655Y-112321190D01*
X246570274Y-112368809D01*
X246665512Y-112416428D01*
X246855988Y-112416428D01*
X246951226Y-112368809D01*
X246998845Y-112321190D01*
X247046464Y-112225952D01*
X241920274Y-114697380D02*
X241348845Y-114697380D01*
X241634560Y-114697380D02*
X241634560Y-113697380D01*
X241539321Y-113840238D01*
X241444083Y-113935476D01*
X241348845Y-113983095D01*
X222769574Y-130648380D02*
X222769574Y-129648380D01*
X223007669Y-129648380D01*
X223150526Y-129696000D01*
X223245764Y-129791238D01*
X223293383Y-129886476D01*
X223341002Y-130076952D01*
X223341002Y-130219809D01*
X223293383Y-130410285D01*
X223245764Y-130505523D01*
X223150526Y-130600761D01*
X223007669Y-130648380D01*
X222769574Y-130648380D01*
X223674336Y-129648380D02*
X224293383Y-129648380D01*
X223960050Y-130029333D01*
X224102907Y-130029333D01*
X224198145Y-130076952D01*
X224245764Y-130124571D01*
X224293383Y-130219809D01*
X224293383Y-130457904D01*
X224245764Y-130553142D01*
X224198145Y-130600761D01*
X224102907Y-130648380D01*
X223817193Y-130648380D01*
X223721955Y-130600761D01*
X223674336Y-130553142D01*
X224864812Y-130076952D02*
X224769574Y-130029333D01*
X224721955Y-129981714D01*
X224674336Y-129886476D01*
X224674336Y-129838857D01*
X224721955Y-129743619D01*
X224769574Y-129696000D01*
X224864812Y-129648380D01*
X225055288Y-129648380D01*
X225150526Y-129696000D01*
X225198145Y-129743619D01*
X225245764Y-129838857D01*
X225245764Y-129886476D01*
X225198145Y-129981714D01*
X225150526Y-130029333D01*
X225055288Y-130076952D01*
X224864812Y-130076952D01*
X224769574Y-130124571D01*
X224721955Y-130172190D01*
X224674336Y-130267428D01*
X224674336Y-130457904D01*
X224721955Y-130553142D01*
X224769574Y-130600761D01*
X224864812Y-130648380D01*
X225055288Y-130648380D01*
X225150526Y-130600761D01*
X225198145Y-130553142D01*
X225245764Y-130457904D01*
X225245764Y-130267428D01*
X225198145Y-130172190D01*
X225150526Y-130124571D01*
X225055288Y-130076952D01*
X215801574Y-128921380D02*
X215230145Y-128921380D01*
X215515860Y-128921380D02*
X215515860Y-127921380D01*
X215420621Y-128064238D01*
X215325383Y-128159476D01*
X215230145Y-128207095D01*
X184669574Y-130521380D02*
X184669574Y-129521380D01*
X184907669Y-129521380D01*
X185050526Y-129569000D01*
X185145764Y-129664238D01*
X185193383Y-129759476D01*
X185241002Y-129949952D01*
X185241002Y-130092809D01*
X185193383Y-130283285D01*
X185145764Y-130378523D01*
X185050526Y-130473761D01*
X184907669Y-130521380D01*
X184669574Y-130521380D01*
X185574336Y-129521380D02*
X186193383Y-129521380D01*
X185860050Y-129902333D01*
X186002907Y-129902333D01*
X186098145Y-129949952D01*
X186145764Y-129997571D01*
X186193383Y-130092809D01*
X186193383Y-130330904D01*
X186145764Y-130426142D01*
X186098145Y-130473761D01*
X186002907Y-130521380D01*
X185717193Y-130521380D01*
X185621955Y-130473761D01*
X185574336Y-130426142D01*
X186526717Y-129521380D02*
X187193383Y-129521380D01*
X186764812Y-130521380D01*
X177701574Y-128921380D02*
X177130145Y-128921380D01*
X177415860Y-128921380D02*
X177415860Y-127921380D01*
X177320621Y-128064238D01*
X177225383Y-128159476D01*
X177130145Y-128207095D01*
X154088474Y-112797380D02*
X154088474Y-111797380D01*
X154326569Y-111797380D01*
X154469426Y-111845000D01*
X154564664Y-111940238D01*
X154612283Y-112035476D01*
X154659902Y-112225952D01*
X154659902Y-112368809D01*
X154612283Y-112559285D01*
X154564664Y-112654523D01*
X154469426Y-112749761D01*
X154326569Y-112797380D01*
X154088474Y-112797380D01*
X154993236Y-111797380D02*
X155612283Y-111797380D01*
X155278950Y-112178333D01*
X155421807Y-112178333D01*
X155517045Y-112225952D01*
X155564664Y-112273571D01*
X155612283Y-112368809D01*
X155612283Y-112606904D01*
X155564664Y-112702142D01*
X155517045Y-112749761D01*
X155421807Y-112797380D01*
X155136093Y-112797380D01*
X155040855Y-112749761D01*
X154993236Y-112702142D01*
X156469426Y-111797380D02*
X156278950Y-111797380D01*
X156183712Y-111845000D01*
X156136093Y-111892619D01*
X156040855Y-112035476D01*
X155993236Y-112225952D01*
X155993236Y-112606904D01*
X156040855Y-112702142D01*
X156088474Y-112749761D01*
X156183712Y-112797380D01*
X156374188Y-112797380D01*
X156469426Y-112749761D01*
X156517045Y-112702142D01*
X156564664Y-112606904D01*
X156564664Y-112368809D01*
X156517045Y-112273571D01*
X156469426Y-112225952D01*
X156374188Y-112178333D01*
X156183712Y-112178333D01*
X156088474Y-112225952D01*
X156040855Y-112273571D01*
X155993236Y-112368809D01*
X151438474Y-114697380D02*
X150867045Y-114697380D01*
X151152760Y-114697380D02*
X151152760Y-113697380D01*
X151057521Y-113840238D01*
X150962283Y-113935476D01*
X150867045Y-113983095D01*
X113295574Y-110963380D02*
X113295574Y-109963380D01*
X113533669Y-109963380D01*
X113676526Y-110011000D01*
X113771764Y-110106238D01*
X113819383Y-110201476D01*
X113867002Y-110391952D01*
X113867002Y-110534809D01*
X113819383Y-110725285D01*
X113771764Y-110820523D01*
X113676526Y-110915761D01*
X113533669Y-110963380D01*
X113295574Y-110963380D01*
X114200336Y-109963380D02*
X114819383Y-109963380D01*
X114486050Y-110344333D01*
X114628907Y-110344333D01*
X114724145Y-110391952D01*
X114771764Y-110439571D01*
X114819383Y-110534809D01*
X114819383Y-110772904D01*
X114771764Y-110868142D01*
X114724145Y-110915761D01*
X114628907Y-110963380D01*
X114343193Y-110963380D01*
X114247955Y-110915761D01*
X114200336Y-110868142D01*
X115724145Y-109963380D02*
X115247955Y-109963380D01*
X115200336Y-110439571D01*
X115247955Y-110391952D01*
X115343193Y-110344333D01*
X115581288Y-110344333D01*
X115676526Y-110391952D01*
X115724145Y-110439571D01*
X115771764Y-110534809D01*
X115771764Y-110772904D01*
X115724145Y-110868142D01*
X115676526Y-110915761D01*
X115581288Y-110963380D01*
X115343193Y-110963380D01*
X115247955Y-110915761D01*
X115200336Y-110868142D01*
X106327574Y-109236380D02*
X105756145Y-109236380D01*
X106041860Y-109236380D02*
X106041860Y-108236380D01*
X105946621Y-108379238D01*
X105851383Y-108474476D01*
X105756145Y-108522095D01*
X109641274Y-72097580D02*
X109641274Y-71097580D01*
X109879369Y-71097580D01*
X110022226Y-71145200D01*
X110117464Y-71240438D01*
X110165083Y-71335676D01*
X110212702Y-71526152D01*
X110212702Y-71669009D01*
X110165083Y-71859485D01*
X110117464Y-71954723D01*
X110022226Y-72049961D01*
X109879369Y-72097580D01*
X109641274Y-72097580D01*
X110546036Y-71097580D02*
X111165083Y-71097580D01*
X110831750Y-71478533D01*
X110974607Y-71478533D01*
X111069845Y-71526152D01*
X111117464Y-71573771D01*
X111165083Y-71669009D01*
X111165083Y-71907104D01*
X111117464Y-72002342D01*
X111069845Y-72049961D01*
X110974607Y-72097580D01*
X110688893Y-72097580D01*
X110593655Y-72049961D01*
X110546036Y-72002342D01*
X112022226Y-71430914D02*
X112022226Y-72097580D01*
X111784131Y-71049961D02*
X111546036Y-71764247D01*
X112165083Y-71764247D01*
X106991274Y-73997580D02*
X106419845Y-73997580D01*
X106705560Y-73997580D02*
X106705560Y-72997580D01*
X106610321Y-73140438D01*
X106515083Y-73235676D01*
X106419845Y-73283295D01*
X208434240Y-66735666D02*
X207958050Y-67069000D01*
X208434240Y-67307095D02*
X207434240Y-67307095D01*
X207434240Y-66926142D01*
X207481860Y-66830904D01*
X207529479Y-66783285D01*
X207624717Y-66735666D01*
X207767574Y-66735666D01*
X207862812Y-66783285D01*
X207910431Y-66830904D01*
X207958050Y-66926142D01*
X207958050Y-67307095D01*
X207434240Y-66402333D02*
X207434240Y-65735666D01*
X208434240Y-66164238D01*
X198274240Y-72688404D02*
X197274240Y-72688404D01*
X197274240Y-72450309D01*
X197321860Y-72307452D01*
X197417098Y-72212214D01*
X197512336Y-72164595D01*
X197702812Y-72116976D01*
X197845669Y-72116976D01*
X198036145Y-72164595D01*
X198131383Y-72212214D01*
X198226621Y-72307452D01*
X198274240Y-72450309D01*
X198274240Y-72688404D01*
X197274240Y-71783642D02*
X197274240Y-71164595D01*
X197655193Y-71497928D01*
X197655193Y-71355071D01*
X197702812Y-71259833D01*
X197750431Y-71212214D01*
X197845669Y-71164595D01*
X198083764Y-71164595D01*
X198179002Y-71212214D01*
X198226621Y-71259833D01*
X198274240Y-71355071D01*
X198274240Y-71640785D01*
X198226621Y-71736023D01*
X198179002Y-71783642D01*
X197274240Y-70831261D02*
X197274240Y-70212214D01*
X197655193Y-70545547D01*
X197655193Y-70402690D01*
X197702812Y-70307452D01*
X197750431Y-70259833D01*
X197845669Y-70212214D01*
X198083764Y-70212214D01*
X198179002Y-70259833D01*
X198226621Y-70307452D01*
X198274240Y-70402690D01*
X198274240Y-70688404D01*
X198226621Y-70783642D01*
X198179002Y-70831261D01*
X198811764Y-67331380D02*
X198811764Y-68140904D01*
X198859383Y-68236142D01*
X198907002Y-68283761D01*
X199002240Y-68331380D01*
X199192717Y-68331380D01*
X199287955Y-68283761D01*
X199335574Y-68236142D01*
X199383193Y-68140904D01*
X199383193Y-67331380D01*
X199811764Y-68283761D02*
X199954621Y-68331380D01*
X200192717Y-68331380D01*
X200287955Y-68283761D01*
X200335574Y-68236142D01*
X200383193Y-68140904D01*
X200383193Y-68045666D01*
X200335574Y-67950428D01*
X200287955Y-67902809D01*
X200192717Y-67855190D01*
X200002240Y-67807571D01*
X199907002Y-67759952D01*
X199859383Y-67712333D01*
X199811764Y-67617095D01*
X199811764Y-67521857D01*
X199859383Y-67426619D01*
X199907002Y-67379000D01*
X200002240Y-67331380D01*
X200240336Y-67331380D01*
X200383193Y-67379000D01*
X201145098Y-67807571D02*
X201287955Y-67855190D01*
X201335574Y-67902809D01*
X201383193Y-67998047D01*
X201383193Y-68140904D01*
X201335574Y-68236142D01*
X201287955Y-68283761D01*
X201192717Y-68331380D01*
X200811764Y-68331380D01*
X200811764Y-67331380D01*
X201145098Y-67331380D01*
X201240336Y-67379000D01*
X201287955Y-67426619D01*
X201335574Y-67521857D01*
X201335574Y-67617095D01*
X201287955Y-67712333D01*
X201240336Y-67759952D01*
X201145098Y-67807571D01*
X200811764Y-67807571D01*
X202335574Y-68331380D02*
X201764145Y-68331380D01*
X202049860Y-68331380D02*
X202049860Y-67331380D01*
X201954621Y-67474238D01*
X201859383Y-67569476D01*
X201764145Y-67617095D01*
X207189091Y-113321026D02*
X206616671Y-113893446D01*
X206582999Y-113994461D01*
X206582999Y-114061805D01*
X206616671Y-114162820D01*
X206751358Y-114297507D01*
X206852373Y-114331179D01*
X206919717Y-114331179D01*
X207020732Y-114297507D01*
X207593152Y-113725087D01*
X207593152Y-115139301D02*
X207189091Y-114735240D01*
X207391121Y-114937270D02*
X208098228Y-114230164D01*
X207929869Y-114263835D01*
X207795182Y-114263835D01*
X207694167Y-114230164D01*
X185904621Y-115962333D02*
X185952240Y-115819476D01*
X185952240Y-115581380D01*
X185904621Y-115486142D01*
X185857002Y-115438523D01*
X185761764Y-115390904D01*
X185666526Y-115390904D01*
X185571288Y-115438523D01*
X185523669Y-115486142D01*
X185476050Y-115581380D01*
X185428431Y-115771857D01*
X185380812Y-115867095D01*
X185333193Y-115914714D01*
X185237955Y-115962333D01*
X185142717Y-115962333D01*
X185047479Y-115914714D01*
X184999860Y-115867095D01*
X184952240Y-115771857D01*
X184952240Y-115533761D01*
X184999860Y-115390904D01*
X184952240Y-115057571D02*
X185952240Y-114819476D01*
X185237955Y-114629000D01*
X185952240Y-114438523D01*
X184952240Y-114200428D01*
X185952240Y-113295666D02*
X185952240Y-113867095D01*
X185952240Y-113581380D02*
X184952240Y-113581380D01*
X185095098Y-113676619D01*
X185190336Y-113771857D01*
X185237955Y-113867095D01*
X195642240Y-72704666D02*
X195166050Y-73038000D01*
X195642240Y-73276095D02*
X194642240Y-73276095D01*
X194642240Y-72895142D01*
X194689860Y-72799904D01*
X194737479Y-72752285D01*
X194832717Y-72704666D01*
X194975574Y-72704666D01*
X195070812Y-72752285D01*
X195118431Y-72799904D01*
X195166050Y-72895142D01*
X195166050Y-73276095D01*
X194642240Y-71847523D02*
X194642240Y-72038000D01*
X194689860Y-72133238D01*
X194737479Y-72180857D01*
X194880336Y-72276095D01*
X195070812Y-72323714D01*
X195451764Y-72323714D01*
X195547002Y-72276095D01*
X195594621Y-72228476D01*
X195642240Y-72133238D01*
X195642240Y-71942761D01*
X195594621Y-71847523D01*
X195547002Y-71799904D01*
X195451764Y-71752285D01*
X195213669Y-71752285D01*
X195118431Y-71799904D01*
X195070812Y-71847523D01*
X195023193Y-71942761D01*
X195023193Y-72133238D01*
X195070812Y-72228476D01*
X195118431Y-72276095D01*
X195213669Y-72323714D01*
X206529240Y-72704666D02*
X206053050Y-73038000D01*
X206529240Y-73276095D02*
X205529240Y-73276095D01*
X205529240Y-72895142D01*
X205576860Y-72799904D01*
X205624479Y-72752285D01*
X205719717Y-72704666D01*
X205862574Y-72704666D01*
X205957812Y-72752285D01*
X206005431Y-72799904D01*
X206053050Y-72895142D01*
X206053050Y-73276095D01*
X205529240Y-71799904D02*
X205529240Y-72276095D01*
X206005431Y-72323714D01*
X205957812Y-72276095D01*
X205910193Y-72180857D01*
X205910193Y-71942761D01*
X205957812Y-71847523D01*
X206005431Y-71799904D01*
X206100669Y-71752285D01*
X206338764Y-71752285D01*
X206434002Y-71799904D01*
X206481621Y-71847523D01*
X206529240Y-71942761D01*
X206529240Y-72180857D01*
X206481621Y-72276095D01*
X206434002Y-72323714D01*
X209585401Y-124247756D02*
X209686416Y-123675336D01*
X209181340Y-123843695D02*
X209888446Y-123136588D01*
X210157821Y-123405962D01*
X210191492Y-123506977D01*
X210191492Y-123574321D01*
X210157821Y-123675336D01*
X210056805Y-123776351D01*
X209955790Y-123810023D01*
X209888446Y-123810023D01*
X209787431Y-123776351D01*
X209518057Y-123506977D01*
X210662897Y-124382443D02*
X210191492Y-124853848D01*
X210763912Y-123944710D02*
X210090477Y-124281428D01*
X210528210Y-124719161D01*
X202465240Y-79689666D02*
X201989050Y-80023000D01*
X202465240Y-80261095D02*
X201465240Y-80261095D01*
X201465240Y-79880142D01*
X201512860Y-79784904D01*
X201560479Y-79737285D01*
X201655717Y-79689666D01*
X201798574Y-79689666D01*
X201893812Y-79737285D01*
X201941431Y-79784904D01*
X201989050Y-79880142D01*
X201989050Y-80261095D01*
X201465240Y-79356333D02*
X201465240Y-78737285D01*
X201846193Y-79070619D01*
X201846193Y-78927761D01*
X201893812Y-78832523D01*
X201941431Y-78784904D01*
X202036669Y-78737285D01*
X202274764Y-78737285D01*
X202370002Y-78784904D01*
X202417621Y-78832523D01*
X202465240Y-78927761D01*
X202465240Y-79213476D01*
X202417621Y-79308714D01*
X202370002Y-79356333D01*
X199671240Y-79689666D02*
X199195050Y-80023000D01*
X199671240Y-80261095D02*
X198671240Y-80261095D01*
X198671240Y-79880142D01*
X198718860Y-79784904D01*
X198766479Y-79737285D01*
X198861717Y-79689666D01*
X199004574Y-79689666D01*
X199099812Y-79737285D01*
X199147431Y-79784904D01*
X199195050Y-79880142D01*
X199195050Y-80261095D01*
X198766479Y-79308714D02*
X198718860Y-79261095D01*
X198671240Y-79165857D01*
X198671240Y-78927761D01*
X198718860Y-78832523D01*
X198766479Y-78784904D01*
X198861717Y-78737285D01*
X198956955Y-78737285D01*
X199099812Y-78784904D01*
X199671240Y-79356333D01*
X199671240Y-78737285D01*
X188860693Y-116731380D02*
X188527360Y-116255190D01*
X188289264Y-116731380D02*
X188289264Y-115731380D01*
X188670217Y-115731380D01*
X188765455Y-115779000D01*
X188813074Y-115826619D01*
X188860693Y-115921857D01*
X188860693Y-116064714D01*
X188813074Y-116159952D01*
X188765455Y-116207571D01*
X188670217Y-116255190D01*
X188289264Y-116255190D01*
X189813074Y-116731380D02*
X189241645Y-116731380D01*
X189527360Y-116731380D02*
X189527360Y-115731380D01*
X189432121Y-115874238D01*
X189336883Y-115969476D01*
X189241645Y-116017095D01*
X192718431Y-75774833D02*
X192718431Y-76108166D01*
X193242240Y-76108166D02*
X192242240Y-76108166D01*
X192242240Y-75631976D01*
X193242240Y-74727214D02*
X193242240Y-75298642D01*
X193242240Y-75012928D02*
X192242240Y-75012928D01*
X192385098Y-75108166D01*
X192480336Y-75203404D01*
X192527955Y-75298642D01*
X198808359Y-109389699D02*
X198808359Y-109457042D01*
X198741015Y-109591729D01*
X198673672Y-109659073D01*
X198538984Y-109726416D01*
X198404297Y-109726416D01*
X198303282Y-109692745D01*
X198134923Y-109591729D01*
X198033908Y-109490714D01*
X197932893Y-109322355D01*
X197899221Y-109221340D01*
X197899221Y-109086653D01*
X197966565Y-108951966D01*
X198033908Y-108884622D01*
X198168595Y-108817279D01*
X198235939Y-108817279D01*
X198404297Y-108514233D02*
X198875702Y-108042829D01*
X199279763Y-109052981D01*
X209886608Y-115061450D02*
X209886608Y-115128793D01*
X209819264Y-115263480D01*
X209751921Y-115330824D01*
X209617233Y-115398167D01*
X209482546Y-115398167D01*
X209381531Y-115364496D01*
X209213172Y-115263480D01*
X209112157Y-115162465D01*
X209011142Y-114994106D01*
X208977470Y-114893091D01*
X208977470Y-114758404D01*
X209044814Y-114623717D01*
X209112157Y-114556373D01*
X209246844Y-114489030D01*
X209314188Y-114489030D01*
X209852936Y-113815595D02*
X209718249Y-113950282D01*
X209684577Y-114051297D01*
X209684577Y-114118641D01*
X209718249Y-114286999D01*
X209819264Y-114455358D01*
X210088638Y-114724732D01*
X210189653Y-114758404D01*
X210256997Y-114758404D01*
X210358012Y-114724732D01*
X210492699Y-114590045D01*
X210526371Y-114489030D01*
X210526371Y-114421686D01*
X210492699Y-114320671D01*
X210324340Y-114152312D01*
X210223325Y-114118641D01*
X210155982Y-114118641D01*
X210054966Y-114152312D01*
X209920279Y-114286999D01*
X209886608Y-114388015D01*
X209886608Y-114455358D01*
X209920279Y-114556373D01*
X207179160Y-127075748D02*
X207111817Y-127075748D01*
X206977130Y-127008404D01*
X206909786Y-126941061D01*
X206842443Y-126806373D01*
X206842443Y-126671686D01*
X206876114Y-126570671D01*
X206977130Y-126402312D01*
X207078145Y-126301297D01*
X207246504Y-126200282D01*
X207347519Y-126166610D01*
X207482206Y-126166610D01*
X207616893Y-126233954D01*
X207684237Y-126301297D01*
X207751580Y-126435984D01*
X207751580Y-126503328D01*
X208458687Y-127075748D02*
X208121969Y-126739030D01*
X207751580Y-127042076D01*
X207818924Y-127042076D01*
X207919939Y-127075748D01*
X208088298Y-127244106D01*
X208121969Y-127345122D01*
X208121969Y-127412465D01*
X208088298Y-127513480D01*
X207919939Y-127681839D01*
X207818924Y-127715511D01*
X207751580Y-127715511D01*
X207650565Y-127681839D01*
X207482206Y-127513480D01*
X207448534Y-127412465D01*
X207448534Y-127345122D01*
X189381531Y-119451626D02*
X189314188Y-119451626D01*
X189179501Y-119384282D01*
X189112157Y-119316939D01*
X189044814Y-119182251D01*
X189044814Y-119047564D01*
X189078485Y-118946549D01*
X189179501Y-118778190D01*
X189280516Y-118677175D01*
X189448875Y-118576160D01*
X189549890Y-118542488D01*
X189684577Y-118542488D01*
X189819264Y-118609832D01*
X189886608Y-118677175D01*
X189953951Y-118811862D01*
X189953951Y-118879206D01*
X190391684Y-119653656D02*
X189920279Y-120125061D01*
X190492699Y-119215923D02*
X189819264Y-119552641D01*
X190256997Y-119990374D01*
X193959780Y-114279875D02*
X193892437Y-114279875D01*
X193757750Y-114212531D01*
X193690406Y-114145188D01*
X193623063Y-114010500D01*
X193623063Y-113875813D01*
X193656734Y-113774798D01*
X193757750Y-113606439D01*
X193858765Y-113505424D01*
X194027124Y-113404409D01*
X194128139Y-113370737D01*
X194262826Y-113370737D01*
X194397513Y-113438081D01*
X194464857Y-113505424D01*
X194532200Y-113640111D01*
X194532200Y-113707455D01*
X194835246Y-113875813D02*
X195272979Y-114313546D01*
X194767902Y-114347218D01*
X194868918Y-114448233D01*
X194902589Y-114549249D01*
X194902589Y-114616592D01*
X194868918Y-114717607D01*
X194700559Y-114885966D01*
X194599544Y-114919638D01*
X194532200Y-114919638D01*
X194431185Y-114885966D01*
X194229154Y-114683936D01*
X194195482Y-114582920D01*
X194195482Y-114515577D01*
X193762486Y-125937328D02*
X193762486Y-126004671D01*
X193695142Y-126139358D01*
X193627799Y-126206702D01*
X193493111Y-126274045D01*
X193358424Y-126274045D01*
X193257409Y-126240374D01*
X193089050Y-126139358D01*
X192988035Y-126038343D01*
X192887020Y-125869984D01*
X192853348Y-125768969D01*
X192853348Y-125634282D01*
X192920692Y-125499595D01*
X192988035Y-125432251D01*
X193122722Y-125364908D01*
X193190066Y-125364908D01*
X193459440Y-125095534D02*
X193459440Y-125028190D01*
X193493111Y-124927175D01*
X193661470Y-124758816D01*
X193762486Y-124725145D01*
X193829829Y-124725145D01*
X193930844Y-124758816D01*
X193998188Y-124826160D01*
X194065531Y-124960847D01*
X194065531Y-125768969D01*
X194503264Y-125331236D01*
X197214857Y-129233201D02*
X197214857Y-129300544D01*
X197147513Y-129435231D01*
X197080170Y-129502575D01*
X196945482Y-129569918D01*
X196810795Y-129569918D01*
X196709780Y-129536247D01*
X196541421Y-129435231D01*
X196440406Y-129334216D01*
X196339391Y-129165857D01*
X196305719Y-129064842D01*
X196305719Y-128930155D01*
X196373063Y-128795468D01*
X196440406Y-128728124D01*
X196575093Y-128660781D01*
X196642437Y-128660781D01*
X197955635Y-128627109D02*
X197551574Y-129031170D01*
X197753605Y-128829140D02*
X197046498Y-128122033D01*
X197080170Y-128290392D01*
X197080170Y-128425079D01*
X197046498Y-128526094D01*
X192889539Y-128465403D02*
X192653837Y-129643914D01*
X193360943Y-128936807D02*
X192182432Y-129172509D01*
X193293600Y-130283677D02*
X192889539Y-129879616D01*
X193091569Y-130081647D02*
X193798676Y-129374540D01*
X193630317Y-129408212D01*
X193495630Y-129408212D01*
X193394615Y-129374540D01*
M02*
