M48
; DRILL file {KiCad (5.1.4)-1} date 3/13/2021 03:50:08
; FORMAT={-:-/ absolute / inch / decimal}
; #@! TF.CreationDate,2021-03-13T03:50:08-06:00
; #@! TF.GenerationSoftware,Kicad,Pcbnew,(5.1.4)-1
; #@! TF.FileFunction,NonPlated,1,2,NPTH
FMAT,2
INCH
T1C0.0256
T2C0.0689
T3C0.1570
%
G90
G05
T1
X7.7819Y-2.5169
X8.0094Y-2.5169
T2
X5.6333Y-2.6458
X6.0333Y-2.6458
X5.0708Y-3.3958
X5.4708Y-3.3958
X4.8833Y-4.1458
X5.2833Y-4.1458
X8.4459Y-4.8958
X8.8459Y-4.8958
X8.2584Y-2.6458
X8.6584Y-2.6458
X10.5085Y-4.1458
X10.9085Y-4.1458
X4.1333Y-4.1458
X4.5333Y-4.1458
X9.5709Y-3.3958
X9.9709Y-3.3958
X6.5709Y-3.3958
X6.9709Y-3.3958
X4.1333Y-2.6458
X4.5333Y-2.6458
X4.3208Y-3.3958
X4.7208Y-3.3958
X9.7585Y-2.6458
X10.1585Y-2.6458
X7.1334Y-2.6458
X7.5334Y-2.6458
X9.0084Y-4.1458
X9.4084Y-4.1458
X6.3834Y-2.6458
X6.7834Y-2.6458
X6.3834Y-4.1458
X6.7834Y-4.1458
X6.9459Y-4.8958
X7.3459Y-4.8958
X5.6333Y-4.1458
X6.0333Y-4.1458
X9.7585Y-4.1458
X10.1585Y-4.1458
X4.8833Y-2.6458
X5.2833Y-2.6458
X11.071Y-3.3958
X11.471Y-3.3958
X8.8209Y-3.3958
X9.2209Y-3.3958
X5.8209Y-3.3958
X6.2209Y-3.3958
X11.2585Y-2.6458
X11.6585Y-2.6458
X9.0084Y-2.6458
X9.4084Y-2.6458
X10.5085Y-2.6458
X10.9085Y-2.6458
X8.2584Y-4.1458
X8.6584Y-4.1458
X11.2585Y-4.1458
X11.6585Y-4.1458
X7.3209Y-3.3958
X7.7209Y-3.3958
X7.1334Y-4.1458
X7.5334Y-4.1458
X10.321Y-3.3958
X10.721Y-3.3958
X8.0709Y-3.4009
X8.4709Y-3.4009
T3
X8.2709Y-3.4009
X5.8333Y-2.6458
X5.2708Y-3.3958
X5.0833Y-4.1458
X8.6459Y-4.8958
X8.4584Y-2.6458
X10.7085Y-4.1458
X4.3333Y-4.1458
X9.7709Y-3.3958
X6.7709Y-3.3958
X4.3333Y-2.6458
X4.5208Y-3.3958
X9.9585Y-2.6458
X7.3334Y-2.6458
X9.2084Y-4.1458
X6.5834Y-2.6458
X6.5834Y-4.1458
X7.1459Y-4.8958
X5.8333Y-4.1458
X9.9585Y-4.1458
X5.0833Y-2.6458
X11.271Y-3.3958
X9.0209Y-3.3958
X6.0209Y-3.3958
X11.4585Y-2.6458
X9.2084Y-2.6458
X10.7085Y-2.6458
X8.4584Y-4.1458
X11.4585Y-4.1458
X7.5209Y-3.3958
X7.3334Y-4.1458
X10.521Y-3.3958
T0
M30
