G04 #@! TF.GenerationSoftware,KiCad,Pcbnew,(5.1.4)-1*
G04 #@! TF.CreationDate,2021-03-13T03:50:06-06:00*
G04 #@! TF.ProjectId,Treadstone32,54726561-6473-4746-9f6e-6533322e6b69,1.1*
G04 #@! TF.SameCoordinates,Original*
G04 #@! TF.FileFunction,Soldermask,Bot*
G04 #@! TF.FilePolarity,Negative*
%FSLAX46Y46*%
G04 Gerber Fmt 4.6, Leading zero omitted, Abs format (unit mm)*
G04 Created by KiCad (PCBNEW (5.1.4)-1) date 2021-03-13 03:50:06*
%MOMM*%
%LPD*%
G04 APERTURE LIST*
%ADD10C,2.150000*%
%ADD11C,4.387800*%
%ADD12O,1.400000X2.000000*%
%ADD13O,1.400000X2.500000*%
%ADD14C,1.050000*%
%ADD15O,1.750000X1.750000*%
%ADD16R,1.750000X1.750000*%
%ADD17C,1.000000*%
G04 APERTURE END LIST*
D10*
X162137500Y-105303280D03*
X172297500Y-105303280D03*
D11*
X167217500Y-105303280D03*
D10*
X209763700Y-67202320D03*
X219923700Y-67202320D03*
D11*
X214843700Y-67202320D03*
D10*
X285965620Y-105303280D03*
X296125620Y-105303280D03*
D11*
X291045620Y-105303280D03*
D10*
X214526320Y-124353760D03*
X224686320Y-124353760D03*
D11*
X219606320Y-124353760D03*
D10*
X176425360Y-124353760D03*
X186585360Y-124353760D03*
D11*
X181505360Y-124353760D03*
D10*
X266915140Y-105303280D03*
X277075140Y-105303280D03*
D11*
X271995140Y-105303280D03*
D10*
X247864660Y-105303280D03*
X258024660Y-105303280D03*
D11*
X252944660Y-105303280D03*
D10*
X228814180Y-105303280D03*
X238974180Y-105303280D03*
D11*
X233894180Y-105303280D03*
D10*
X209763700Y-105303280D03*
X219923700Y-105303280D03*
D11*
X214843700Y-105303280D03*
D10*
X181187980Y-105303280D03*
X191347980Y-105303280D03*
D11*
X186267980Y-105303280D03*
D10*
X143087020Y-105303280D03*
X153247020Y-105303280D03*
D11*
X148167020Y-105303280D03*
D10*
X124036540Y-105303280D03*
X134196540Y-105303280D03*
D11*
X129116540Y-105303280D03*
D10*
X104986060Y-105303280D03*
X115146060Y-105303280D03*
D11*
X110066060Y-105303280D03*
D10*
X281203000Y-86252800D03*
X291363000Y-86252800D03*
D11*
X286283000Y-86252800D03*
D10*
X262152520Y-86252800D03*
X272312520Y-86252800D03*
D11*
X267232520Y-86252800D03*
D10*
X243102040Y-86252800D03*
X253262040Y-86252800D03*
D11*
X248182040Y-86252800D03*
D10*
X224051560Y-86252800D03*
X234211560Y-86252800D03*
D11*
X229131560Y-86252800D03*
D10*
X205001080Y-86382911D03*
X215161080Y-86382911D03*
D11*
X210081080Y-86382911D03*
D10*
X185950600Y-86252800D03*
X196110600Y-86252800D03*
D11*
X191030600Y-86252800D03*
D10*
X166900120Y-86252800D03*
X177060120Y-86252800D03*
D11*
X171980120Y-86252800D03*
D10*
X147849640Y-86252800D03*
X158009640Y-86252800D03*
D11*
X152929640Y-86252800D03*
D10*
X128799160Y-86252800D03*
X138959160Y-86252800D03*
D11*
X133879160Y-86252800D03*
D10*
X109748680Y-86252800D03*
X119908680Y-86252800D03*
D11*
X114828680Y-86252800D03*
D10*
X285965620Y-67202320D03*
X296125620Y-67202320D03*
D11*
X291045620Y-67202320D03*
D10*
X266915140Y-67202320D03*
X277075140Y-67202320D03*
D11*
X271995140Y-67202320D03*
D10*
X247864660Y-67202320D03*
X258024660Y-67202320D03*
D11*
X252944660Y-67202320D03*
D10*
X228814180Y-67202320D03*
X238974180Y-67202320D03*
D11*
X233894180Y-67202320D03*
D10*
X181187980Y-67202320D03*
X191347980Y-67202320D03*
D11*
X186267980Y-67202320D03*
D10*
X162137500Y-67202320D03*
X172297500Y-67202320D03*
D11*
X167217500Y-67202320D03*
D10*
X143087020Y-67202320D03*
X153247020Y-67202320D03*
D11*
X148167020Y-67202320D03*
D10*
X124036540Y-67202320D03*
X134196540Y-67202320D03*
D11*
X129116540Y-67202320D03*
D10*
X104986060Y-67202320D03*
X115146060Y-67202320D03*
D11*
X110066060Y-67202320D03*
D12*
X196229860Y-60279000D03*
X204869860Y-60279000D03*
D13*
X196229860Y-64459000D03*
X204869860Y-64459000D03*
D14*
X203439860Y-63929000D03*
X197659860Y-63929000D03*
D15*
X181439860Y-114629000D03*
D16*
X183439860Y-114629000D03*
D17*
X212239860Y-114579000D03*
X213139860Y-122779000D03*
X201239860Y-108879000D03*
X202311496Y-114750636D03*
X193839860Y-111579000D03*
X191039860Y-116579000D03*
X215239860Y-101979000D03*
X216939860Y-126079000D03*
X195339860Y-106279000D03*
X203639860Y-83579000D03*
X238989860Y-59279000D03*
X200839860Y-62129000D03*
X193789860Y-119329000D03*
X201689860Y-73129000D03*
X204439860Y-74629000D03*
X196939860Y-74629000D03*
X115398860Y-108098000D03*
X291293860Y-88921000D03*
X257638860Y-112924000D03*
X106127860Y-92350000D03*
X214966860Y-132101000D03*
X144481860Y-112670000D03*
X186010860Y-131847000D03*
X176612860Y-118004000D03*
X227158860Y-131466000D03*
X241001860Y-117369000D03*
X118446860Y-111908000D03*
X110064860Y-84095000D03*
X106762860Y-103272000D03*
X208061244Y-112900384D03*
X195027860Y-71379000D03*
X209366081Y-72305221D03*
X199345860Y-90445000D03*
X202647860Y-90379000D03*
X199439860Y-104879000D03*
X205339860Y-104879000D03*
X115652860Y-110511000D03*
X153625860Y-109495000D03*
X154641860Y-109495000D03*
X197839860Y-113679000D03*
X203539860Y-124279000D03*
X174453860Y-110257000D03*
X190439860Y-112879000D03*
X199439860Y-112379000D03*
X191689860Y-117379000D03*
X211189860Y-117129000D03*
X204439860Y-111629000D03*
X193064860Y-116004000D03*
X196546393Y-115272467D03*
X110191860Y-108733000D03*
X204171543Y-127969268D03*
X204171860Y-130704000D03*
X205366703Y-129986101D03*
X148799860Y-110892000D03*
X179025868Y-127275000D03*
X197998566Y-67431183D03*
X197689860Y-70754000D03*
X209569302Y-110508442D03*
X218773864Y-109879000D03*
X218817863Y-110679003D03*
X218855866Y-111479006D03*
X218913851Y-112279009D03*
X118827860Y-89556000D03*
X185502860Y-116878999D03*
X190709860Y-120163000D03*
X192360860Y-120163000D03*
X138639860Y-108225000D03*
X140925864Y-108225000D03*
X152482864Y-108225000D03*
X154514854Y-108225000D03*
X185411052Y-130668808D03*
X187788860Y-130704000D03*
X202223102Y-131652649D03*
X205060860Y-131720000D03*
M02*
