M48
; DRILL file {KiCad (5.1.4)-1} date 3/13/2021 03:50:08
; FORMAT={-:-/ absolute / inch / decimal}
; #@! TF.CreationDate,2021-03-13T03:50:08-06:00
; #@! TF.GenerationSoftware,Kicad,Pcbnew,(5.1.4)-1
; #@! TF.FileFunction,Plated,1,2,PTH
FMAT,2
INCH
T1C0.0157
T2C0.0236
T3C0.0315
T4C0.0579
%
G90
G05
T1
X4.1783Y-3.6358
X4.2033Y-4.0658
X4.3333Y-3.3108
X4.3383Y-4.2808
X4.5433Y-4.2558
X4.5533Y-4.3508
X4.6633Y-4.4058
X4.6783Y-3.5258
X5.4583Y-4.2608
X5.5483Y-4.2608
X5.6883Y-4.4358
X5.8583Y-4.3658
X6.0033Y-4.2608
X6.0483Y-4.3108
X6.0833Y-4.2608
X6.0883Y-4.3108
X6.8683Y-4.3408
X6.9533Y-4.6458
X7.0483Y-5.0108
X7.2996Y-5.1444
X7.3033Y-4.6015
X7.3233Y-5.1908
X7.3933Y-5.1458
X7.4976Y-4.4441
X7.5083Y-4.7308
X7.5213Y-4.5897
X7.5468Y-4.6212
X7.5733Y-4.7308
X7.601Y-4.5671
X7.6295Y-4.698
X7.6315Y-4.3929
X7.6783Y-2.8102
X7.6905Y-4.1842
X7.738Y-4.5383
X7.7535Y-2.9381
X7.7831Y-2.7856
X7.789Y-4.4756
X7.7952Y-2.6548
X7.8483Y-3.5608
X7.852Y-4.1291
X7.852Y-4.4244
X7.9071Y-2.446
X7.9228Y-4.2866
X7.9405Y-2.8791
X7.9615Y-5.1832
X7.965Y-4.5177
X7.9783Y-3.5582
X8.0134Y-4.8929
X8.0173Y-3.2905
X8.0382Y-5.0382
X8.0383Y-5.1458
X8.0488Y-2.9381
X8.0488Y-4.3948
X8.0733Y-5.1858
X8.0842Y-4.1291
X8.0853Y-5.1176
X8.1914Y-4.4449
X8.2428Y-2.8467
X8.2508Y-4.3507
X8.3146Y-4.6114
X8.3559Y-4.511
X8.3913Y-4.8338
X8.4633Y-5.2008
X8.474Y-4.0149
X8.5409Y-4.9637
X8.6131Y-4.3259
X8.6149Y-4.3574
X8.6164Y-4.3889
X8.6187Y-4.4204
X8.9433Y-5.1758
X9.409Y-2.3338
X9.4883Y-4.6208
X10.1433Y-4.4458
X11.4683Y-3.5008
T3
X7.1433Y-4.513
X7.222Y-4.513
T4
X11.3585Y-3.9458
X11.6085Y-4.0458
X7.4209Y-3.1958
X7.6709Y-3.2958
X7.2334Y-3.9458
X7.4834Y-4.0458
X10.421Y-3.1958
X10.671Y-3.2958
X8.1709Y-3.2009
X8.4209Y-3.3009
X5.7333Y-2.4458
X5.9833Y-2.5458
X5.1708Y-3.1958
X5.4208Y-3.2958
X4.9833Y-3.9458
X5.2333Y-4.0458
X8.5459Y-4.6958
X8.7959Y-4.7958
X8.3584Y-2.4458
X8.6084Y-2.5458
X10.6085Y-3.9458
X10.8585Y-4.0458
X4.2333Y-3.9458
X4.4833Y-4.0458
X9.6709Y-3.1958
X9.9209Y-3.2958
X6.6709Y-3.1958
X6.9209Y-3.2958
X4.2333Y-2.4458
X4.4833Y-2.5458
X4.4208Y-3.1958
X4.6708Y-3.2958
X9.8585Y-2.4458
X10.1085Y-2.5458
X7.2334Y-2.4458
X7.4834Y-2.5458
X9.1084Y-3.9458
X9.3584Y-4.0458
X6.4834Y-2.4458
X6.7334Y-2.5458
X6.4834Y-3.9458
X6.7334Y-4.0458
X7.0459Y-4.6958
X7.2959Y-4.7958
X5.7333Y-3.9458
X5.9833Y-4.0458
X9.8585Y-3.9458
X10.1085Y-4.0458
X4.9833Y-2.4458
X5.2333Y-2.5458
X11.171Y-3.1958
X11.421Y-3.2958
X8.9209Y-3.1958
X9.1709Y-3.2958
X5.9209Y-3.1958
X6.1709Y-3.2958
X11.3585Y-2.4458
X11.6085Y-2.5458
X9.1084Y-2.4458
X9.3584Y-2.5458
X10.6085Y-2.4458
X10.8585Y-2.5458
X8.3584Y-3.9458
X8.6084Y-4.0458
T2
G00X7.7256Y-2.385
M15
G01X7.7256Y-2.3614
M16
G05
G00X7.7256Y-2.5594
M15
G01X7.7256Y-2.5161
M16
G05
G00X8.0657Y-2.385
M15
G01X8.0657Y-2.3614
M16
G05
G00X8.0657Y-2.5594
M15
G01X8.0657Y-2.5161
M16
G05
T0
M30
